 0 
SECTION
 2 
HEADER
 9 
$ACADVER
 1 
AC1004
 9 
$EXTMIN
 10 
0.0
 20 
0.0
 9 
$EXTMAX
 10 
45.72
 20 
19.05
 9 
$LIMMIN
 10 
0.0
 20 
0.0
 9 
$LIMMAX
 10 
45.72
 20 
19.05
 9 
$INSBASE
 10 
0.0
 20 
0.0
 9 
$VIEWCTR
 10 
22.86
 20 
9.525
 9 
$VIEWSIZE
 40 
19.05
 9 
$ORTHOMODE
 70 
 0 
 9 
$REGENMODE
 70 
 1 
 9 
$FILLMODE
 70 
 1 
 9 
$QTEXTMODE
 70 
 0 
 9 
$DRAGMODE
 70 
 2 
 9 
$LTSCALE
 40 
1.0
 9 
$OSMODE
 70 
 0 
 9 
$ATTMODE
 70 
 1 
 9 
$TEXTSIZE
 40 
0.2
 9 
$TRACEWID
 40 
0.05
 9 
$TEXTSTYLE
 7 
STANDARD
 9 
$CLAYER
 8 
0
 9 
$CELTYPE
 6 
BYLAYER
 9 
$CECOLOR
 62 
 256 
 9 
$DIMSCALE
 40 
1.0
 9 
$DIMLFAC
 40 
1.0
 9 
$LUNITS
 70 
 2 
 9 
$LUPREC
 70 
 4 
 9 
$AXISMODE
 70 
 0 
 9 
$AXISUNIT
 10 
0.0
 20 
0.0
 9 
$SKETCHINC
 40 
0.1
 9 
$MENU
 1 
acad
 9 
$ELEVATION
 40 
0.0
 9 
$THICKNESS
 40 
0.0
 9 
$VIEWDIR
 10 
0.0
 20 
0.0
 30 
1.0
 9 
$LIMCHECK
 70 
 0 
 9 
$BLIPMODE
 70 
 1 
 9 
$FASTZOOM
 70 
 1 
 9 
$SKPOLY
 70 
 0 
 9 
$ANGBASE
 50 
0.0
 9 
$ANGDIR
 70 
 0 
 9 
$PDMODE
 70 
 0 
 9 
$PDSIZE
 40 
0.0
 9 
$PLINEWID
 40 
0.0
 9 
$COORDS
 70 
 0 
 9 
$ATTDIA
 70 
 0 
 9 
$ATTREQ
 70 
 1 
 0 
ENDSEC
 0 
SECTION
 2 
TABLES
 0 
TABLE
 2 
LTYPE
 70 
 10 
 0 
LTYPE
 2 
CONTINUOUS
 70 
 64 
 3 
Solid line
 72 
 65 
 73 
 0 
 40 
0.0
 0 
ENDTAB
 0 
TABLE
 2 
LAYER
 70 
 153 
 0 
LAYER
 2 
0
 70 
 64 
 62 
 7 
 6 
CONTINUOUS
 0 
ENDTAB
 0 
ENDSEC
 0 
SECTION
 2 
BLOCKS
 0 
ENDSEC
 0 
SECTION
 2 
ENTITIES
 0 
LINE
 8 
0
 62 
 7 
 10 
0.0
 20 
19.05
 11 
45.72
 21 
19.05
 0 
LINE
 8 
0
 62 
 7 
 10 
45.72
 20 
19.05
 11 
45.72
 21 
0.0
 0 
LINE
 8 
0
 62 
 7 
 10 
45.72
 20 
0.0
 11 
0.0
 21 
0.0
 0 
LINE
 8 
0
 62 
 7 
 10 
0.0
 20 
0.0
 11 
0.0
 21 
19.05
 0 
LINE
 8 
0
 62 
 7 
 10 
14.834
 20 
7.061
 11 
15.672
 21 
7.061
 0 
LINE
 8 
0
 62 
 7 
 10 
15.672
 20 
7.061
 11 
15.672
 21 
5.664
 0 
LINE
 8 
0
 62 
 7 
 10 
15.672
 20 
5.664
 11 
14.834
 21 
5.664
 0 
LINE
 8 
0
 62 
 7 
 10 
14.834
 20 
5.664
 11 
14.834
 21 
7.061
 0 
LINE
 8 
0
 62 
 7 
 10 
15.875
 20 
6.833
 11 
17.145
 21 
6.833
 0 
LINE
 8 
0
 62 
 7 
 10 
13.335
 20 
6.833
 11 
13.335
 21 
13.614
 0 
LINE
 8 
0
 62 
 7 
 10 
17.145
 20 
6.833
 11 
17.145
 21 
13.614
 0 
LINE
 8 
0
 62 
 7 
 10 
13.335
 20 
13.614
 11 
14.605
 21 
13.614
 0 
LINE
 8 
0
 62 
 7 
 10 
14.605
 20 
8.534
 11 
15.875
 21 
8.534
 0 
LINE
 8 
0
 62 
 7 
 10 
15.875
 20 
8.534
 11 
15.875
 21 
11.709
 0 
LINE
 8 
0
 62 
 7 
 10 
15.875
 20 
11.709
 11 
14.605
 21 
11.709
 0 
LINE
 8 
0
 62 
 7 
 10 
14.605
 20 
11.709
 11 
14.605
 21 
8.534
 0 
LINE
 8 
0
 62 
 7 
 10 
13.335
 20 
6.833
 11 
14.605
 21 
6.833
 0 
LINE
 8 
0
 62 
 7 
 10 
15.875
 20 
13.614
 11 
17.145
 21 
13.614
 0 
LINE
 8 
0
 62 
 7 
 10 
14.834
 20 
14.783
 11 
15.672
 21 
14.783
 0 
LINE
 8 
0
 62 
 7 
 10 
15.672
 20 
14.783
 11 
15.672
 21 
13.386
 0 
LINE
 8 
0
 62 
 7 
 10 
15.672
 20 
13.386
 11 
14.834
 21 
13.386
 0 
LINE
 8 
0
 62 
 7 
 10 
14.834
 20 
13.386
 11 
14.834
 21 
14.783
 0 
LINE
 8 
0
 62 
 7 
 10 
17.932
 20 
6.985
 11 
17.78
 21 
6.833
 0 
LINE
 8 
0
 62 
 7 
 10 
17.78
 20 
6.833
 11 
17.78
 21 
6.502
 0 
LINE
 8 
0
 62 
 7 
 10 
17.78
 20 
6.502
 11 
17.932
 21 
6.35
 0 
LINE
 8 
0
 62 
 7 
 10 
17.932
 20 
6.35
 11 
18.11
 21 
6.35
 0 
LINE
 8 
0
 62 
 7 
 10 
18.11
 20 
6.35
 11 
18.263
 21 
6.502
 0 
LINE
 8 
0
 62 
 7 
 10 
18.263
 20 
6.502
 11 
18.263
 21 
6.833
 0 
LINE
 8 
0
 62 
 7 
 10 
18.263
 20 
6.833
 11 
18.415
 21 
6.985
 0 
LINE
 8 
0
 62 
 7 
 10 
18.415
 20 
6.985
 11 
18.593
 21 
6.985
 0 
LINE
 8 
0
 62 
 7 
 10 
18.593
 20 
6.985
 11 
18.745
 21 
6.833
 0 
LINE
 8 
0
 62 
 7 
 10 
18.745
 20 
6.833
 11 
18.745
 21 
6.502
 0 
LINE
 8 
0
 62 
 7 
 10 
18.745
 20 
6.502
 11 
18.593
 21 
6.35
 0 
LINE
 8 
0
 62 
 7 
 10 
17.78
 20 
7.315
 11 
18.745
 21 
7.315
 0 
LINE
 8 
0
 62 
 7 
 10 
18.745
 20 
7.315
 11 
18.415
 21 
7.645
 0 
LINE
 8 
0
 62 
 7 
 10 
18.415
 20 
7.645
 11 
18.745
 21 
7.95
 0 
LINE
 8 
0
 62 
 7 
 10 
18.745
 20 
7.95
 11 
17.78
 21 
7.95
 0 
LINE
 8 
0
 62 
 7 
 10 
18.415
 20 
7.645
 11 
18.263
 21 
7.645
 0 
LINE
 8 
0
 62 
 7 
 10 
17.932
 20 
8.28
 11 
17.78
 21 
8.433
 0 
LINE
 8 
0
 62 
 7 
 10 
17.78
 20 
8.433
 11 
17.78
 21 
8.763
 0 
LINE
 8 
0
 62 
 7 
 10 
17.78
 20 
8.763
 11 
17.932
 21 
8.915
 0 
LINE
 8 
0
 62 
 7 
 10 
17.932
 20 
8.915
 11 
18.11
 21 
8.915
 0 
LINE
 8 
0
 62 
 7 
 10 
18.11
 20 
8.915
 11 
18.263
 21 
8.763
 0 
LINE
 8 
0
 62 
 7 
 10 
18.263
 20 
8.763
 11 
18.263
 21 
8.433
 0 
LINE
 8 
0
 62 
 7 
 10 
18.263
 20 
8.433
 11 
18.415
 21 
8.28
 0 
LINE
 8 
0
 62 
 7 
 10 
18.415
 20 
8.28
 11 
18.745
 21 
8.28
 0 
LINE
 8 
0
 62 
 7 
 10 
18.745
 20 
8.28
 11 
18.745
 21 
8.915
 0 
LINE
 8 
0
 62 
 7 
 10 
7.95
 20 
9.525
 11 
6.985
 21 
9.525
 0 
LINE
 8 
0
 62 
 7 
 10 
6.985
 20 
9.525
 11 
6.985
 21 
10.008
 0 
LINE
 8 
0
 62 
 7 
 10 
6.985
 20 
10.008
 11 
7.137
 21 
10.16
 0 
LINE
 8 
0
 62 
 7 
 10 
7.137
 20 
10.16
 11 
7.315
 21 
10.16
 0 
LINE
 8 
0
 62 
 7 
 10 
7.315
 20 
10.16
 11 
7.468
 21 
10.008
 0 
LINE
 8 
0
 62 
 7 
 10 
7.468
 20 
10.008
 11 
7.468
 21 
9.525
 0 
LINE
 8 
0
 62 
 7 
 10 
7.468
 20 
9.677
 11 
7.95
 21 
10.16
 0 
LINE
 8 
0
 62 
 7 
 10 
7.62
 20 
10.49
 11 
7.62
 21 
11.125
 0 
LINE
 8 
0
 62 
 7 
 10 
7.62
 20 
11.125
 11 
7.468
 21 
11.125
 0 
LINE
 8 
0
 62 
 7 
 10 
7.468
 20 
11.125
 11 
7.315
 21 
10.973
 0 
LINE
 8 
0
 62 
 7 
 10 
7.315
 20 
10.973
 11 
7.315
 21 
10.643
 0 
LINE
 8 
0
 62 
 7 
 10 
7.315
 20 
10.643
 11 
7.468
 21 
10.49
 0 
LINE
 8 
0
 62 
 7 
 10 
7.468
 20 
10.49
 11 
7.798
 21 
10.49
 0 
LINE
 8 
0
 62 
 7 
 10 
7.798
 20 
10.49
 11 
7.95
 21 
10.643
 0 
LINE
 8 
0
 62 
 7 
 10 
7.95
 20 
10.643
 11 
7.95
 21 
10.973
 0 
LINE
 8 
0
 62 
 7 
 10 
7.315
 20 
12.09
 11 
7.315
 21 
11.608
 0 
LINE
 8 
0
 62 
 7 
 10 
7.315
 20 
11.608
 11 
7.468
 21 
11.455
 0 
LINE
 8 
0
 62 
 7 
 10 
7.468
 20 
11.455
 11 
7.62
 21 
11.608
 0 
LINE
 8 
0
 62 
 7 
 10 
7.62
 20 
11.608
 11 
7.62
 21 
11.938
 0 
LINE
 8 
0
 62 
 7 
 10 
7.62
 20 
11.938
 11 
7.798
 21 
12.09
 0 
LINE
 8 
0
 62 
 7 
 10 
7.798
 20 
12.09
 11 
7.95
 21 
11.938
 0 
LINE
 8 
0
 62 
 7 
 10 
7.95
 20 
11.938
 11 
7.95
 21 
11.455
 0 
LINE
 8 
0
 62 
 7 
 10 
7.62
 20 
12.421
 11 
7.62
 21 
13.056
 0 
LINE
 8 
0
 62 
 7 
 10 
7.62
 20 
13.056
 11 
7.468
 21 
13.056
 0 
LINE
 8 
0
 62 
 7 
 10 
7.468
 20 
13.056
 11 
7.315
 21 
12.903
 0 
LINE
 8 
0
 62 
 7 
 10 
7.315
 20 
12.903
 11 
7.315
 21 
12.573
 0 
LINE
 8 
0
 62 
 7 
 10 
7.315
 20 
12.573
 11 
7.468
 21 
12.421
 0 
LINE
 8 
0
 62 
 7 
 10 
7.468
 20 
12.421
 11 
7.798
 21 
12.421
 0 
LINE
 8 
0
 62 
 7 
 10 
7.798
 20 
12.421
 11 
7.95
 21 
12.573
 0 
LINE
 8 
0
 62 
 7 
 10 
7.95
 20 
12.573
 11 
7.95
 21 
12.903
 0 
LINE
 8 
0
 62 
 7 
 10 
6.985
 20 
13.538
 11 
7.798
 21 
13.538
 0 
LINE
 8 
0
 62 
 7 
 10 
7.798
 20 
13.538
 11 
7.95
 21 
13.716
 0 
LINE
 8 
0
 62 
 7 
 10 
7.95
 20 
13.716
 11 
7.95
 21 
13.868
 0 
LINE
 8 
0
 62 
 7 
 10 
7.95
 20 
13.868
 11 
7.798
 21 
14.021
 0 
LINE
 8 
0
 62 
 7 
 10 
7.315
 20 
13.386
 11 
7.315
 21 
13.868
 0 
LINE
 8 
0
 62 
 7 
 10 
18.745
 20 
10.16
 11 
17.78
 21 
10.16
 0 
LINE
 8 
0
 62 
 7 
 10 
17.78
 20 
10.16
 11 
17.78
 21 
10.643
 0 
LINE
 8 
0
 62 
 7 
 10 
17.78
 20 
10.643
 11 
17.932
 21 
10.795
 0 
LINE
 8 
0
 62 
 7 
 10 
17.932
 20 
10.795
 11 
18.11
 21 
10.795
 0 
LINE
 8 
0
 62 
 7 
 10 
18.11
 20 
10.795
 11 
18.263
 21 
10.643
 0 
LINE
 8 
0
 62 
 7 
 10 
18.263
 20 
10.643
 11 
18.263
 21 
10.16
 0 
LINE
 8 
0
 62 
 7 
 10 
18.11
 20 
11.125
 11 
18.745
 21 
11.125
 0 
LINE
 8 
0
 62 
 7 
 10 
18.415
 20 
11.125
 11 
18.11
 21 
11.455
 0 
LINE
 8 
0
 62 
 7 
 10 
18.11
 20 
11.455
 11 
18.11
 21 
11.608
 0 
LINE
 8 
0
 62 
 7 
 10 
18.11
 20 
11.608
 11 
18.263
 21 
11.76
 0 
LINE
 8 
0
 62 
 7 
 10 
18.263
 20 
12.725
 11 
18.11
 21 
12.573
 0 
LINE
 8 
0
 62 
 7 
 10 
18.11
 20 
12.573
 11 
18.11
 21 
12.243
 0 
LINE
 8 
0
 62 
 7 
 10 
18.11
 20 
12.243
 11 
18.263
 21 
12.09
 0 
LINE
 8 
0
 62 
 7 
 10 
18.263
 20 
12.09
 11 
18.593
 21 
12.09
 0 
LINE
 8 
0
 62 
 7 
 10 
18.593
 20 
12.09
 11 
18.745
 21 
12.243
 0 
LINE
 8 
0
 62 
 7 
 10 
18.745
 20 
12.243
 11 
18.745
 21 
12.573
 0 
LINE
 8 
0
 62 
 7 
 10 
18.745
 20 
12.573
 11 
18.593
 21 
12.725
 0 
LINE
 8 
0
 62 
 7 
 10 
18.593
 20 
12.725
 11 
18.263
 21 
12.725
 0 
LINE
 8 
0
 62 
 7 
 10 
18.263
 20 
13.691
 11 
18.11
 21 
13.538
 0 
LINE
 8 
0
 62 
 7 
 10 
18.11
 20 
13.538
 11 
18.11
 21 
13.208
 0 
LINE
 8 
0
 62 
 7 
 10 
18.11
 20 
13.208
 11 
18.263
 21 
13.056
 0 
LINE
 8 
0
 62 
 7 
 10 
18.263
 20 
13.056
 11 
18.593
 21 
13.056
 0 
LINE
 8 
0
 62 
 7 
 10 
18.593
 20 
13.056
 11 
18.745
 21 
13.208
 0 
LINE
 8 
0
 62 
 7 
 10 
18.745
 20 
13.208
 11 
18.745
 21 
13.386
 0 
LINE
 8 
0
 62 
 7 
 10 
18.745
 20 
13.386
 11 
18.415
 21 
13.691
 0 
LINE
 8 
0
 62 
 7 
 10 
18.11
 20 
13.691
 11 
18.898
 21 
13.691
 0 
LINE
 8 
0
 62 
 7 
 10 
18.898
 20 
13.691
 11 
19.075
 21 
13.538
 0 
LINE
 8 
0
 62 
 7 
 10 
19.075
 20 
13.538
 11 
19.075
 21 
13.056
 0 
LINE
 8 
0
 62 
 7 
 10 
0.61
 20 
8.585
 11 
0.61
 21 
7.747
 0 
LINE
 8 
0
 62 
 7 
 10 
0.61
 20 
7.747
 11 
1.88
 21 
7.747
 0 
LINE
 8 
0
 62 
 7 
 10 
1.245
 20 
7.747
 11 
1.245
 21 
8.382
 0 
LINE
 8 
0
 62 
 7 
 10 
0.61
 20 
9.017
 11 
0.61
 21 
9.855
 0 
LINE
 8 
0
 62 
 7 
 10 
0.61
 20 
9.449
 11 
1.88
 21 
9.449
 0 
LINE
 8 
0
 62 
 7 
 10 
0.61
 20 
10.287
 11 
0.61
 21 
10.922
 0 
LINE
 8 
0
 62 
 7 
 10 
0.61
 20 
10.922
 11 
0.813
 21 
11.125
 0 
LINE
 8 
0
 62 
 7 
 10 
0.813
 20 
11.125
 11 
1.676
 21 
11.125
 0 
LINE
 8 
0
 62 
 7 
 10 
1.676
 20 
11.125
 11 
1.88
 21 
10.922
 0 
LINE
 8 
0
 62 
 7 
 10 
1.88
 20 
10.922
 11 
1.88
 21 
10.287
 0 
LINE
 8 
0
 62 
 7 
 10 
0.61
 20 
10.49
 11 
1.88
 21 
10.49
 0 
LINE
 8 
0
 62 
 7 
 10 
0.61
 20 
11.76
 11 
0.61
 21 
12.192
 0 
LINE
 8 
0
 62 
 7 
 10 
1.88
 20 
11.76
 11 
1.88
 21 
12.192
 0 
LINE
 8 
0
 62 
 7 
 10 
0.61
 20 
11.989
 11 
1.88
 21 
11.989
 0 
LINE
 8 
0
 62 
 7 
 10 
37.465
 20 
17.78
 11 
37.465
 21 
16.815
 0 
LINE
 8 
0
 62 
 7 
 10 
37.465
 20 
16.815
 11 
37.795
 21 
17.145
 0 
LINE
 8 
0
 62 
 7 
 10 
37.795
 20 
17.145
 11 
38.1
 21 
16.815
 0 
LINE
 8 
0
 62 
 7 
 10 
38.1
 20 
16.815
 11 
38.1
 21 
17.78
 0 
LINE
 8 
0
 62 
 7 
 10 
37.795
 20 
17.145
 11 
37.795
 21 
17.297
 0 
LINE
 8 
0
 62 
 7 
 10 
38.583
 20 
17.78
 11 
38.913
 21 
17.78
 0 
LINE
 8 
0
 62 
 7 
 10 
38.583
 20 
16.815
 11 
38.913
 21 
16.815
 0 
LINE
 8 
0
 62 
 7 
 10 
38.76
 20 
17.78
 11 
38.76
 21 
16.815
 0 
LINE
 8 
0
 62 
 7 
 10 
40.03
 20 
17.78
 11 
39.395
 21 
17.78
 0 
LINE
 8 
0
 62 
 7 
 10 
39.395
 20 
17.78
 11 
39.395
 21 
16.815
 0 
LINE
 8 
0
 62 
 7 
 10 
39.395
 20 
17.297
 11 
39.878
 21 
17.297
 0 
LINE
 8 
0
 62 
 7 
 10 
40.513
 20 
17.78
 11 
40.843
 21 
17.78
 0 
LINE
 8 
0
 62 
 7 
 10 
40.513
 20 
16.815
 11 
40.843
 21 
16.815
 0 
LINE
 8 
0
 62 
 7 
 10 
40.691
 20 
17.78
 11 
40.691
 21 
16.815
 0 
LINE
 8 
0
 62 
 7 
 10 
41.478
 20 
17.628
 11 
41.656
 21 
17.78
 0 
LINE
 8 
0
 62 
 7 
 10 
41.656
 20 
17.78
 11 
41.656
 21 
16.815
 0 
LINE
 8 
0
 62 
 7 
 10 
41.478
 20 
16.815
 11 
41.808
 21 
16.815
 0 
LINE
 8 
0
 62 
 7 
 10 
3.099
 20 
3.251
 11 
4.521
 21 
3.251
 0 
LINE
 8 
0
 62 
 7 
 10 
4.521
 20 
3.251
 11 
4.521
 21 
1.829
 0 
LINE
 8 
0
 62 
 7 
 10 
4.521
 20 
1.829
 11 
3.099
 21 
1.829
 0 
LINE
 8 
0
 62 
 7 
 10 
3.099
 20 
1.829
 11 
3.099
 21 
3.251
 0 
CIRCLE
 8 
0
 62 
 7 
 10 
3.81
 20 
2.54
 40 
0.356
 0 
CIRCLE
 8 
0
 62 
 7 
 10 
3.81
 20 
5.08
 40 
0.711
 0 
CIRCLE
 8 
0
 62 
 7 
 10 
3.81
 20 
5.08
 40 
0.356
 0 
CIRCLE
 8 
0
 62 
 7 
 10 
3.81
 20 
7.62
 40 
0.711
 0 
CIRCLE
 8 
0
 62 
 7 
 10 
3.81
 20 
7.62
 40 
0.356
 0 
CIRCLE
 8 
0
 62 
 7 
 10 
3.81
 20 
10.16
 40 
0.711
 0 
CIRCLE
 8 
0
 62 
 7 
 10 
3.81
 20 
10.16
 40 
0.356
 0 
CIRCLE
 8 
0
 62 
 7 
 10 
3.81
 20 
12.7
 40 
0.711
 0 
CIRCLE
 8 
0
 62 
 7 
 10 
3.81
 20 
12.7
 40 
0.356
 0 
CIRCLE
 8 
0
 62 
 7 
 10 
3.81
 20 
15.24
 40 
0.711
 0 
CIRCLE
 8 
0
 62 
 7 
 10 
3.81
 20 
15.24
 40 
0.356
 0 
LINE
 8 
0
 62 
 7 
 10 
5.08
 20 
1.27
 11 
2.54
 21 
1.27
 0 
LINE
 8 
0
 62 
 7 
 10 
2.54
 20 
16.51
 11 
2.54
 21 
1.27
 0 
LINE
 8 
0
 62 
 7 
 10 
2.54
 20 
16.51
 11 
5.08
 21 
16.51
 0 
LINE
 8 
0
 62 
 7 
 10 
5.08
 20 
1.27
 11 
5.08
 21 
16.51
 0 
LINE
 8 
0
 62 
 7 
 10 
5.08
 20 
3.81
 11 
2.54
 21 
3.81
 0 
LINE
 8 
0
 62 
 7 
 10 
2.743
 20 
18.415
 11 
3.378
 21 
18.415
 0 
LINE
 8 
0
 62 
 7 
 10 
3.378
 20 
18.415
 11 
3.378
 21 
17.348
 0 
LINE
 8 
0
 62 
 7 
 10 
3.378
 20 
17.348
 11 
3.175
 21 
17.145
 0 
LINE
 8 
0
 62 
 7 
 10 
3.175
 20 
17.145
 11 
2.743
 21 
17.145
 0 
LINE
 8 
0
 62 
 7 
 10 
2.743
 20 
17.145
 11 
2.54
 21 
17.348
 0 
LINE
 8 
0
 62 
 7 
 10 
4.013
 20 
18.212
 11 
4.242
 21 
18.415
 0 
LINE
 8 
0
 62 
 7 
 10 
4.242
 20 
18.415
 11 
4.242
 21 
17.145
 0 
LINE
 8 
0
 62 
 7 
 10 
4.013
 20 
17.145
 11 
4.445
 21 
17.145
 0 
LINE
 8 
0
 62 
 7 
 10 
22.225
 20 
6.858
 11 
23.495
 21 
6.858
 0 
LINE
 8 
0
 62 
 7 
 10 
23.495
 20 
6.858
 11 
23.495
 21 
5.842
 0 
LINE
 8 
0
 62 
 7 
 10 
23.495
 20 
5.842
 11 
22.225
 21 
5.842
 0 
LINE
 8 
0
 62 
 7 
 10 
22.225
 20 
5.842
 11 
22.225
 21 
6.858
 0 
LINE
 8 
0
 62 
 7 
 10 
22.225
 20 
8.788
 11 
23.495
 21 
8.788
 0 
LINE
 8 
0
 62 
 7 
 10 
23.495
 20 
8.788
 11 
23.495
 21 
7.772
 0 
LINE
 8 
0
 62 
 7 
 10 
23.495
 20 
7.772
 11 
22.225
 21 
7.772
 0 
LINE
 8 
0
 62 
 7 
 10 
22.225
 20 
7.772
 11 
22.225
 21 
8.788
 0 
LINE
 8 
0
 62 
 7 
 10 
21.717
 20 
6.807
 11 
21.717
 21 
5.334
 0 
LINE
 8 
0
 62 
 7 
 10 
21.717
 20 
5.334
 11 
24.003
 21 
5.334
 0 
LINE
 8 
0
 62 
 7 
 10 
24.003
 20 
5.334
 11 
24.003
 21 
6.807
 0 
LINE
 8 
0
 62 
 7 
 10 
21.717
 20 
7.823
 11 
21.717
 21 
9.296
 0 
LINE
 8 
0
 62 
 7 
 10 
21.717
 20 
9.296
 11 
24.003
 21 
9.296
 0 
LINE
 8 
0
 62 
 7 
 10 
24.003
 20 
9.296
 11 
24.003
 21 
7.823
 0 
LINE
 8 
0
 62 
 7 
 10 
22.225
 20 
3.48
 11 
22.225
 21 
4.445
 0 
LINE
 8 
0
 62 
 7 
 10 
22.225
 20 
4.445
 11 
22.708
 21 
4.445
 0 
LINE
 8 
0
 62 
 7 
 10 
22.708
 20 
4.445
 11 
22.86
 21 
4.293
 0 
LINE
 8 
0
 62 
 7 
 10 
22.86
 20 
4.293
 11 
22.86
 21 
4.115
 0 
LINE
 8 
0
 62 
 7 
 10 
22.86
 20 
4.115
 11 
22.708
 21 
3.962
 0 
LINE
 8 
0
 62 
 7 
 10 
22.708
 20 
3.962
 11 
22.225
 21 
3.962
 0 
LINE
 8 
0
 62 
 7 
 10 
22.377
 20 
3.962
 11 
22.86
 21 
3.48
 0 
LINE
 8 
0
 62 
 7 
 10 
23.343
 20 
4.293
 11 
23.52
 21 
4.445
 0 
LINE
 8 
0
 62 
 7 
 10 
23.52
 20 
4.445
 11 
23.52
 21 
3.48
 0 
LINE
 8 
0
 62 
 7 
 10 
23.343
 20 
3.48
 11 
23.673
 21 
3.48
 0 
LINE
 8 
0
 62 
 7 
 10 
25.4
 20 
8.763
 11 
26.67
 21 
8.763
 0 
LINE
 8 
0
 62 
 7 
 10 
26.67
 20 
8.763
 11 
26.67
 21 
7.747
 0 
LINE
 8 
0
 62 
 7 
 10 
26.67
 20 
7.747
 11 
25.4
 21 
7.747
 0 
LINE
 8 
0
 62 
 7 
 10 
25.4
 20 
7.747
 11 
25.4
 21 
8.763
 0 
LINE
 8 
0
 62 
 7 
 10 
25.4
 20 
6.833
 11 
26.67
 21 
6.833
 0 
LINE
 8 
0
 62 
 7 
 10 
26.67
 20 
6.833
 11 
26.67
 21 
5.817
 0 
LINE
 8 
0
 62 
 7 
 10 
26.67
 20 
5.817
 11 
25.4
 21 
5.817
 0 
LINE
 8 
0
 62 
 7 
 10 
25.4
 20 
5.817
 11 
25.4
 21 
6.833
 0 
LINE
 8 
0
 62 
 7 
 10 
27.178
 20 
7.798
 11 
27.178
 21 
9.271
 0 
LINE
 8 
0
 62 
 7 
 10 
27.178
 20 
9.271
 11 
24.892
 21 
9.271
 0 
LINE
 8 
0
 62 
 7 
 10 
24.892
 20 
9.271
 11 
24.892
 21 
7.798
 0 
LINE
 8 
0
 62 
 7 
 10 
27.178
 20 
6.782
 11 
27.178
 21 
5.309
 0 
LINE
 8 
0
 62 
 7 
 10 
27.178
 20 
5.309
 11 
24.892
 21 
5.309
 0 
LINE
 8 
0
 62 
 7 
 10 
24.892
 20 
5.309
 11 
24.892
 21 
6.782
 0 
LINE
 8 
0
 62 
 7 
 10 
25.4
 20 
3.48
 11 
25.4
 21 
4.445
 0 
LINE
 8 
0
 62 
 7 
 10 
25.4
 20 
4.445
 11 
25.883
 21 
4.445
 0 
LINE
 8 
0
 62 
 7 
 10 
25.883
 20 
4.445
 11 
26.035
 21 
4.293
 0 
LINE
 8 
0
 62 
 7 
 10 
26.035
 20 
4.293
 11 
26.035
 21 
4.115
 0 
LINE
 8 
0
 62 
 7 
 10 
26.035
 20 
4.115
 11 
25.883
 21 
3.962
 0 
LINE
 8 
0
 62 
 7 
 10 
25.883
 20 
3.962
 11 
25.4
 21 
3.962
 0 
LINE
 8 
0
 62 
 7 
 10 
25.552
 20 
3.962
 11 
26.035
 21 
3.48
 0 
LINE
 8 
0
 62 
 7 
 10 
26.365
 20 
4.293
 11 
26.518
 21 
4.445
 0 
LINE
 8 
0
 62 
 7 
 10 
26.518
 20 
4.445
 11 
26.848
 21 
4.445
 0 
LINE
 8 
0
 62 
 7 
 10 
26.848
 20 
4.445
 11 
27.0
 21 
4.293
 0 
LINE
 8 
0
 62 
 7 
 10 
27.0
 20 
4.293
 11 
27.0
 21 
4.115
 0 
LINE
 8 
0
 62 
 7 
 10 
27.0
 20 
4.115
 11 
26.848
 21 
3.962
 0 
LINE
 8 
0
 62 
 7 
 10 
26.848
 20 
3.962
 11 
26.518
 21 
3.962
 0 
LINE
 8 
0
 62 
 7 
 10 
26.518
 20 
3.962
 11 
26.365
 21 
3.81
 0 
LINE
 8 
0
 62 
 7 
 10 
26.365
 20 
3.81
 11 
26.365
 21 
3.48
 0 
LINE
 8 
0
 62 
 7 
 10 
26.365
 20 
3.48
 11 
27.0
 21 
3.48
 0 
LINE
 8 
0
 62 
 7 
 10 
37.897
 20 
14.783
 11 
39.548
 21 
14.783
 0 
LINE
 8 
0
 62 
 7 
 10 
39.548
 20 
14.783
 11 
39.548
 21 
13.132
 0 
LINE
 8 
0
 62 
 7 
 10 
39.548
 20 
13.132
 11 
37.897
 21 
13.132
 0 
LINE
 8 
0
 62 
 7 
 10 
37.897
 20 
13.132
 11 
37.897
 21 
14.783
 0 
CIRCLE
 8 
0
 62 
 7 
 10 
38.735
 20 
13.97
 40 
0.457
 0 
CIRCLE
 8 
0
 62 
 7 
 10 
41.275
 20 
13.97
 40 
0.813
 0 
CIRCLE
 8 
0
 62 
 7 
 10 
41.275
 20 
13.97
 40 
0.457
 0 
CIRCLE
 8 
0
 62 
 7 
 10 
38.735
 20 
11.43
 40 
0.813
 0 
CIRCLE
 8 
0
 62 
 7 
 10 
38.735
 20 
11.43
 40 
0.457
 0 
CIRCLE
 8 
0
 62 
 7 
 10 
41.275
 20 
11.43
 40 
0.813
 0 
CIRCLE
 8 
0
 62 
 7 
 10 
41.275
 20 
11.43
 40 
0.457
 0 
CIRCLE
 8 
0
 62 
 7 
 10 
38.735
 20 
8.89
 40 
0.813
 0 
CIRCLE
 8 
0
 62 
 7 
 10 
38.735
 20 
8.89
 40 
0.457
 0 
CIRCLE
 8 
0
 62 
 7 
 10 
41.275
 20 
8.89
 40 
0.813
 0 
CIRCLE
 8 
0
 62 
 7 
 10 
41.275
 20 
8.89
 40 
0.457
 0 
CIRCLE
 8 
0
 62 
 7 
 10 
38.735
 20 
6.35
 40 
0.813
 0 
CIRCLE
 8 
0
 62 
 7 
 10 
38.735
 20 
6.35
 40 
0.457
 0 
CIRCLE
 8 
0
 62 
 7 
 10 
41.275
 20 
6.35
 40 
0.813
 0 
CIRCLE
 8 
0
 62 
 7 
 10 
41.275
 20 
6.35
 40 
0.457
 0 
LINE
 8 
0
 62 
 7 
 10 
36.195
 20 
16.51
 11 
43.815
 21 
16.51
 0 
LINE
 8 
0
 62 
 7 
 10 
43.815
 20 
3.81
 11 
43.815
 21 
16.51
 0 
LINE
 8 
0
 62 
 7 
 10 
43.815
 20 
3.81
 11 
36.195
 21 
3.81
 0 
LINE
 8 
0
 62 
 7 
 10 
36.195
 20 
16.51
 11 
36.195
 21 
3.81
 0 
LINE
 8 
0
 62 
 7 
 10 
31.75
 20 
6.858
 11 
33.02
 21 
6.858
 0 
LINE
 8 
0
 62 
 7 
 10 
33.02
 20 
6.858
 11 
33.02
 21 
5.842
 0 
LINE
 8 
0
 62 
 7 
 10 
33.02
 20 
5.842
 11 
31.75
 21 
5.842
 0 
LINE
 8 
0
 62 
 7 
 10 
31.75
 20 
5.842
 11 
31.75
 21 
6.858
 0 
LINE
 8 
0
 62 
 7 
 10 
36.246
 20 
3.175
 11 
35.56
 21 
3.175
 0 
LINE
 8 
0
 62 
 7 
 10 
35.56
 20 
3.175
 11 
35.56
 21 
2.159
 0 
LINE
 8 
0
 62 
 7 
 10 
35.56
 20 
2.159
 11 
36.246
 21 
2.159
 0 
LINE
 8 
0
 62 
 7 
 10 
35.56
 20 
2.667
 11 
36.068
 21 
2.667
 0 
LINE
 8 
0
 62 
 7 
 10 
37.262
 20 
2.997
 11 
37.084
 21 
3.175
 0 
LINE
 8 
0
 62 
 7 
 10 
37.084
 20 
3.175
 11 
36.754
 21 
3.175
 0 
LINE
 8 
0
 62 
 7 
 10 
36.754
 20 
3.175
 11 
36.576
 21 
2.997
 0 
LINE
 8 
0
 62 
 7 
 10 
36.576
 20 
2.997
 11 
36.576
 21 
2.845
 0 
LINE
 8 
0
 62 
 7 
 10 
36.576
 20 
2.845
 11 
36.754
 21 
2.667
 0 
LINE
 8 
0
 62 
 7 
 10 
36.754
 20 
2.667
 11 
37.084
 21 
2.667
 0 
LINE
 8 
0
 62 
 7 
 10 
37.084
 20 
2.667
 11 
37.262
 21 
2.489
 0 
LINE
 8 
0
 62 
 7 
 10 
37.262
 20 
2.489
 11 
37.262
 21 
2.337
 0 
LINE
 8 
0
 62 
 7 
 10 
37.262
 20 
2.337
 11 
37.084
 21 
2.159
 0 
LINE
 8 
0
 62 
 7 
 10 
37.084
 20 
2.159
 11 
36.754
 21 
2.159
 0 
LINE
 8 
0
 62 
 7 
 10 
36.754
 20 
2.159
 11 
36.576
 21 
2.337
 0 
LINE
 8 
0
 62 
 7 
 10 
37.592
 20 
2.159
 11 
37.592
 21 
3.175
 0 
LINE
 8 
0
 62 
 7 
 10 
37.592
 20 
3.175
 11 
38.1
 21 
3.175
 0 
LINE
 8 
0
 62 
 7 
 10 
38.1
 20 
3.175
 11 
38.278
 21 
2.997
 0 
LINE
 8 
0
 62 
 7 
 10 
38.278
 20 
2.997
 11 
38.278
 21 
2.845
 0 
LINE
 8 
0
 62 
 7 
 10 
38.278
 20 
2.845
 11 
38.1
 21 
2.667
 0 
LINE
 8 
0
 62 
 7 
 10 
38.1
 20 
2.667
 11 
37.592
 21 
2.667
 0 
LINE
 8 
0
 62 
 7 
 10 
38.786
 20 
2.667
 11 
38.608
 21 
2.845
 0 
LINE
 8 
0
 62 
 7 
 10 
38.608
 20 
2.845
 11 
38.608
 21 
2.997
 0 
LINE
 8 
0
 62 
 7 
 10 
38.608
 20 
2.997
 11 
38.786
 21 
3.175
 0 
LINE
 8 
0
 62 
 7 
 10 
38.786
 20 
3.175
 11 
39.116
 21 
3.175
 0 
LINE
 8 
0
 62 
 7 
 10 
39.116
 20 
3.175
 11 
39.294
 21 
2.997
 0 
LINE
 8 
0
 62 
 7 
 10 
39.294
 20 
2.997
 11 
39.294
 21 
2.845
 0 
LINE
 8 
0
 62 
 7 
 10 
39.294
 20 
2.845
 11 
39.116
 21 
2.667
 0 
LINE
 8 
0
 62 
 7 
 10 
39.116
 20 
2.667
 11 
38.786
 21 
2.667
 0 
LINE
 8 
0
 62 
 7 
 10 
38.786
 20 
2.667
 11 
38.608
 21 
2.489
 0 
LINE
 8 
0
 62 
 7 
 10 
38.608
 20 
2.489
 11 
38.608
 21 
2.337
 0 
LINE
 8 
0
 62 
 7 
 10 
38.608
 20 
2.337
 11 
38.786
 21 
2.159
 0 
LINE
 8 
0
 62 
 7 
 10 
38.786
 20 
2.159
 11 
39.116
 21 
2.159
 0 
LINE
 8 
0
 62 
 7 
 10 
39.116
 20 
2.159
 11 
39.294
 21 
2.337
 0 
LINE
 8 
0
 62 
 7 
 10 
39.294
 20 
2.337
 11 
39.294
 21 
2.489
 0 
LINE
 8 
0
 62 
 7 
 10 
39.294
 20 
2.489
 11 
39.116
 21 
2.667
 0 
LINE
 8 
0
 62 
 7 
 10 
39.624
 20 
2.997
 11 
39.802
 21 
3.175
 0 
LINE
 8 
0
 62 
 7 
 10 
39.802
 20 
3.175
 11 
40.132
 21 
3.175
 0 
LINE
 8 
0
 62 
 7 
 10 
40.132
 20 
3.175
 11 
40.31
 21 
2.997
 0 
LINE
 8 
0
 62 
 7 
 10 
40.31
 20 
2.997
 11 
40.31
 21 
2.845
 0 
LINE
 8 
0
 62 
 7 
 10 
40.31
 20 
2.845
 11 
40.132
 21 
2.667
 0 
LINE
 8 
0
 62 
 7 
 10 
40.132
 20 
2.667
 11 
39.802
 21 
2.667
 0 
LINE
 8 
0
 62 
 7 
 10 
39.802
 20 
2.667
 11 
39.624
 21 
2.489
 0 
LINE
 8 
0
 62 
 7 
 10 
39.624
 20 
2.489
 11 
39.624
 21 
2.159
 0 
LINE
 8 
0
 62 
 7 
 10 
39.624
 20 
2.159
 11 
40.31
 21 
2.159
 0 
LINE
 8 
0
 62 
 7 
 10 
41.148
 20 
3.175
 11 
40.97
 21 
3.175
 0 
LINE
 8 
0
 62 
 7 
 10 
40.97
 20 
3.175
 11 
40.64
 21 
2.845
 0 
LINE
 8 
0
 62 
 7 
 10 
40.64
 20 
2.845
 11 
40.64
 21 
2.337
 0 
LINE
 8 
0
 62 
 7 
 10 
40.64
 20 
2.337
 11 
40.818
 21 
2.159
 0 
LINE
 8 
0
 62 
 7 
 10 
40.818
 20 
2.159
 11 
41.148
 21 
2.159
 0 
LINE
 8 
0
 62 
 7 
 10 
41.148
 20 
2.159
 11 
41.326
 21 
2.337
 0 
LINE
 8 
0
 62 
 7 
 10 
41.326
 20 
2.337
 11 
41.326
 21 
2.489
 0 
LINE
 8 
0
 62 
 7 
 10 
41.326
 20 
2.489
 11 
41.148
 21 
2.667
 0 
LINE
 8 
0
 62 
 7 
 10 
41.148
 20 
2.667
 11 
40.818
 21 
2.667
 0 
LINE
 8 
0
 62 
 7 
 10 
40.818
 20 
2.667
 11 
40.64
 21 
2.489
 0 
LINE
 8 
0
 62 
 7 
 10 
42.164
 20 
3.175
 11 
41.986
 21 
3.175
 0 
LINE
 8 
0
 62 
 7 
 10 
41.986
 20 
3.175
 11 
41.656
 21 
2.845
 0 
LINE
 8 
0
 62 
 7 
 10 
41.656
 20 
2.845
 11 
41.656
 21 
2.337
 0 
LINE
 8 
0
 62 
 7 
 10 
41.656
 20 
2.337
 11 
41.834
 21 
2.159
 0 
LINE
 8 
0
 62 
 7 
 10 
41.834
 20 
2.159
 11 
42.164
 21 
2.159
 0 
LINE
 8 
0
 62 
 7 
 10 
42.164
 20 
2.159
 11 
42.342
 21 
2.337
 0 
LINE
 8 
0
 62 
 7 
 10 
42.342
 20 
2.337
 11 
42.342
 21 
2.489
 0 
LINE
 8 
0
 62 
 7 
 10 
42.342
 20 
2.489
 11 
42.164
 21 
2.667
 0 
LINE
 8 
0
 62 
 7 
 10 
42.164
 20 
2.667
 11 
41.834
 21 
2.667
 0 
LINE
 8 
0
 62 
 7 
 10 
41.834
 20 
2.667
 11 
41.656
 21 
2.489
 0 
LINE
 8 
0
 62 
 7 
 10 
42.672
 20 
2.667
 11 
43.358
 21 
2.667
 0 
LINE
 8 
0
 62 
 7 
 10 
43.866
 20 
2.997
 11 
44.018
 21 
3.175
 0 
LINE
 8 
0
 62 
 7 
 10 
44.018
 20 
3.175
 11 
44.018
 21 
2.159
 0 
LINE
 8 
0
 62 
 7 
 10 
43.866
 20 
2.159
 11 
44.196
 21 
2.159
 0 
LINE
 8 
0
 62 
 7 
 10 
8.89
 20 
17.78
 11 
9.576
 21 
17.78
 0 
LINE
 8 
0
 62 
 7 
 10 
9.22
 20 
17.78
 11 
9.22
 21 
16.764
 0 
LINE
 8 
0
 62 
 7 
 10 
9.906
 20 
17.78
 11 
9.906
 21 
16.764
 0 
LINE
 8 
0
 62 
 7 
 10 
9.906
 20 
17.094
 11 
10.236
 21 
17.45
 0 
LINE
 8 
0
 62 
 7 
 10 
10.236
 20 
17.45
 11 
10.414
 21 
17.45
 0 
LINE
 8 
0
 62 
 7 
 10 
10.414
 20 
17.45
 11 
10.592
 21 
17.272
 0 
LINE
 8 
0
 62 
 7 
 10 
10.592
 20 
17.272
 11 
10.592
 21 
16.764
 0 
LINE
 8 
0
 62 
 7 
 10 
10.922
 20 
17.094
 11 
11.608
 21 
17.094
 0 
LINE
 8 
0
 62 
 7 
 10 
11.608
 20 
17.094
 11 
11.608
 21 
17.272
 0 
LINE
 8 
0
 62 
 7 
 10 
11.608
 20 
17.272
 11 
11.43
 21 
17.45
 0 
LINE
 8 
0
 62 
 7 
 10 
11.43
 20 
17.45
 11 
11.1
 21 
17.45
 0 
LINE
 8 
0
 62 
 7 
 10 
11.1
 20 
17.45
 11 
10.922
 21 
17.272
 0 
LINE
 8 
0
 62 
 7 
 10 
10.922
 20 
17.272
 11 
10.922
 21 
16.942
 0 
LINE
 8 
0
 62 
 7 
 10 
10.922
 20 
16.942
 11 
11.1
 21 
16.764
 0 
LINE
 8 
0
 62 
 7 
 10 
11.1
 20 
16.764
 11 
11.43
 21 
16.764
 0 
LINE
 8 
0
 62 
 7 
 10 
12.954
 20 
16.764
 11 
12.954
 21 
17.78
 0 
LINE
 8 
0
 62 
 7 
 10 
12.954
 20 
17.78
 11 
13.462
 21 
17.78
 0 
LINE
 8 
0
 62 
 7 
 10 
13.462
 20 
17.78
 11 
13.64
 21 
17.602
 0 
LINE
 8 
0
 62 
 7 
 10 
13.64
 20 
17.602
 11 
13.64
 21 
17.45
 0 
LINE
 8 
0
 62 
 7 
 10 
13.64
 20 
17.45
 11 
13.462
 21 
17.272
 0 
LINE
 8 
0
 62 
 7 
 10 
13.462
 20 
17.272
 11 
12.954
 21 
17.272
 0 
LINE
 8 
0
 62 
 7 
 10 
13.97
 20 
17.45
 11 
13.97
 21 
16.764
 0 
LINE
 8 
0
 62 
 7 
 10 
13.97
 20 
17.094
 11 
14.3
 21 
17.45
 0 
LINE
 8 
0
 62 
 7 
 10 
14.3
 20 
17.45
 11 
14.478
 21 
17.45
 0 
LINE
 8 
0
 62 
 7 
 10 
14.478
 20 
17.45
 11 
14.656
 21 
17.272
 0 
LINE
 8 
0
 62 
 7 
 10 
15.672
 20 
17.272
 11 
15.494
 21 
17.45
 0 
LINE
 8 
0
 62 
 7 
 10 
15.494
 20 
17.45
 11 
15.164
 21 
17.45
 0 
LINE
 8 
0
 62 
 7 
 10 
15.164
 20 
17.45
 11 
14.986
 21 
17.272
 0 
LINE
 8 
0
 62 
 7 
 10 
14.986
 20 
17.272
 11 
14.986
 21 
16.942
 0 
LINE
 8 
0
 62 
 7 
 10 
14.986
 20 
16.942
 11 
15.164
 21 
16.764
 0 
LINE
 8 
0
 62 
 7 
 10 
15.164
 20 
16.764
 11 
15.494
 21 
16.764
 0 
LINE
 8 
0
 62 
 7 
 10 
15.494
 20 
16.764
 11 
15.672
 21 
16.942
 0 
LINE
 8 
0
 62 
 7 
 10 
15.672
 20 
16.942
 11 
15.672
 21 
17.272
 0 
LINE
 8 
0
 62 
 7 
 10 
16.688
 20 
17.272
 11 
16.51
 21 
17.45
 0 
LINE
 8 
0
 62 
 7 
 10 
16.51
 20 
17.45
 11 
16.18
 21 
17.45
 0 
LINE
 8 
0
 62 
 7 
 10 
16.18
 20 
17.45
 11 
16.002
 21 
17.272
 0 
LINE
 8 
0
 62 
 7 
 10 
16.002
 20 
17.272
 11 
16.002
 21 
16.942
 0 
LINE
 8 
0
 62 
 7 
 10 
16.002
 20 
16.942
 11 
16.18
 21 
16.764
 0 
LINE
 8 
0
 62 
 7 
 10 
16.18
 20 
16.764
 11 
16.51
 21 
16.764
 0 
LINE
 8 
0
 62 
 7 
 10 
16.51
 20 
16.764
 11 
16.688
 21 
16.942
 0 
LINE
 8 
0
 62 
 7 
 10 
17.018
 20 
17.78
 11 
17.196
 21 
17.78
 0 
LINE
 8 
0
 62 
 7 
 10 
17.196
 20 
17.78
 11 
17.196
 21 
16.764
 0 
LINE
 8 
0
 62 
 7 
 10 
17.704
 20 
17.45
 11 
17.348
 21 
17.094
 0 
LINE
 8 
0
 62 
 7 
 10 
17.348
 20 
17.094
 11 
17.704
 21 
16.764
 0 
LINE
 8 
0
 62 
 7 
 10 
17.196
 20 
17.094
 11 
17.348
 21 
17.094
 0 
LINE
 8 
0
 62 
 7 
 10 
18.034
 20 
17.45
 11 
18.034
 21 
16.764
 0 
LINE
 8 
0
 62 
 7 
 10 
18.034
 20 
17.094
 11 
18.364
 21 
17.45
 0 
LINE
 8 
0
 62 
 7 
 10 
18.364
 20 
17.45
 11 
18.542
 21 
17.45
 0 
LINE
 8 
0
 62 
 7 
 10 
18.542
 20 
17.45
 11 
18.72
 21 
17.272
 0 
LINE
 8 
0
 62 
 7 
 10 
18.72
 20 
17.272
 11 
18.72
 21 
16.764
 0 
LINE
 8 
0
 62 
 7 
 10 
19.228
 20 
17.45
 11 
19.558
 21 
17.45
 0 
LINE
 8 
0
 62 
 7 
 10 
19.558
 20 
17.45
 11 
19.736
 21 
17.272
 0 
LINE
 8 
0
 62 
 7 
 10 
19.736
 20 
17.272
 11 
19.736
 21 
16.764
 0 
LINE
 8 
0
 62 
 7 
 10 
19.736
 20 
17.094
 11 
19.228
 21 
17.094
 0 
LINE
 8 
0
 62 
 7 
 10 
19.228
 20 
17.094
 11 
19.05
 21 
16.942
 0 
LINE
 8 
0
 62 
 7 
 10 
19.05
 20 
16.942
 11 
19.228
 21 
16.764
 0 
LINE
 8 
0
 62 
 7 
 10 
19.228
 20 
16.764
 11 
19.558
 21 
16.764
 0 
LINE
 8 
0
 62 
 7 
 10 
19.558
 20 
16.764
 11 
19.736
 21 
16.942
 0 
LINE
 8 
0
 62 
 7 
 10 
20.244
 20 
17.78
 11 
20.244
 21 
16.942
 0 
LINE
 8 
0
 62 
 7 
 10 
20.244
 20 
16.942
 11 
20.396
 21 
16.764
 0 
LINE
 8 
0
 62 
 7 
 10 
20.396
 20 
16.764
 11 
20.574
 21 
16.764
 0 
LINE
 8 
0
 62 
 7 
 10 
20.574
 20 
16.764
 11 
20.752
 21 
16.942
 0 
LINE
 8 
0
 62 
 7 
 10 
20.066
 20 
17.45
 11 
20.574
 21 
17.45
 0 
LINE
 8 
0
 62 
 7 
 10 
21.412
 20 
17.78
 11 
21.412
 21 
17.602
 0 
LINE
 8 
0
 62 
 7 
 10 
21.26
 20 
16.764
 11 
21.59
 21 
16.764
 0 
LINE
 8 
0
 62 
 7 
 10 
21.26
 20 
17.272
 11 
21.412
 21 
17.272
 0 
LINE
 8 
0
 62 
 7 
 10 
21.412
 20 
17.272
 11 
21.412
 21 
16.764
 0 
LINE
 8 
0
 62 
 7 
 10 
22.784
 20 
17.272
 11 
22.606
 21 
17.45
 0 
LINE
 8 
0
 62 
 7 
 10 
22.606
 20 
17.45
 11 
22.276
 21 
17.45
 0 
LINE
 8 
0
 62 
 7 
 10 
22.276
 20 
17.45
 11 
22.098
 21 
17.272
 0 
LINE
 8 
0
 62 
 7 
 10 
22.098
 20 
17.272
 11 
22.098
 21 
16.942
 0 
LINE
 8 
0
 62 
 7 
 10 
22.098
 20 
16.942
 11 
22.276
 21 
16.764
 0 
LINE
 8 
0
 62 
 7 
 10 
22.276
 20 
16.764
 11 
22.606
 21 
16.764
 0 
LINE
 8 
0
 62 
 7 
 10 
22.606
 20 
16.764
 11 
22.784
 21 
16.942
 0 
LINE
 8 
0
 62 
 7 
 10 
22.784
 20 
16.942
 11 
22.784
 21 
17.272
 0 
LINE
 8 
0
 62 
 7 
 10 
23.114
 20 
17.45
 11 
23.114
 21 
16.764
 0 
LINE
 8 
0
 62 
 7 
 10 
23.114
 20 
17.094
 11 
23.444
 21 
17.45
 0 
LINE
 8 
0
 62 
 7 
 10 
23.444
 20 
17.45
 11 
23.622
 21 
17.45
 0 
LINE
 8 
0
 62 
 7 
 10 
23.622
 20 
17.45
 11 
23.8
 21 
17.272
 0 
LINE
 8 
0
 62 
 7 
 10 
23.8
 20 
17.272
 11 
23.8
 21 
16.764
 0 
LINE
 8 
0
 62 
 7 
 10 
25.832
 20 
17.78
 11 
25.146
 21 
17.78
 0 
LINE
 8 
0
 62 
 7 
 10 
25.146
 20 
17.78
 11 
25.146
 21 
16.764
 0 
LINE
 8 
0
 62 
 7 
 10 
25.146
 20 
16.764
 11 
25.832
 21 
16.764
 0 
LINE
 8 
0
 62 
 7 
 10 
25.146
 20 
17.272
 11 
25.654
 21 
17.272
 0 
LINE
 8 
0
 62 
 7 
 10 
26.848
 20 
17.602
 11 
26.67
 21 
17.78
 0 
LINE
 8 
0
 62 
 7 
 10 
26.67
 20 
17.78
 11 
26.34
 21 
17.78
 0 
LINE
 8 
0
 62 
 7 
 10 
26.34
 20 
17.78
 11 
26.162
 21 
17.602
 0 
LINE
 8 
0
 62 
 7 
 10 
26.162
 20 
17.602
 11 
26.162
 21 
17.45
 0 
LINE
 8 
0
 62 
 7 
 10 
26.162
 20 
17.45
 11 
26.34
 21 
17.272
 0 
LINE
 8 
0
 62 
 7 
 10 
26.34
 20 
17.272
 11 
26.67
 21 
17.272
 0 
LINE
 8 
0
 62 
 7 
 10 
26.67
 20 
17.272
 11 
26.848
 21 
17.094
 0 
LINE
 8 
0
 62 
 7 
 10 
26.848
 20 
17.094
 11 
26.848
 21 
16.942
 0 
LINE
 8 
0
 62 
 7 
 10 
26.848
 20 
16.942
 11 
26.67
 21 
16.764
 0 
LINE
 8 
0
 62 
 7 
 10 
26.67
 20 
16.764
 11 
26.34
 21 
16.764
 0 
LINE
 8 
0
 62 
 7 
 10 
26.34
 20 
16.764
 11 
26.162
 21 
16.942
 0 
LINE
 8 
0
 62 
 7 
 10 
27.178
 20 
16.764
 11 
27.178
 21 
17.78
 0 
LINE
 8 
0
 62 
 7 
 10 
27.178
 20 
17.78
 11 
27.686
 21 
17.78
 0 
LINE
 8 
0
 62 
 7 
 10 
27.686
 20 
17.78
 11 
27.864
 21 
17.602
 0 
LINE
 8 
0
 62 
 7 
 10 
27.864
 20 
17.602
 11 
27.864
 21 
17.45
 0 
LINE
 8 
0
 62 
 7 
 10 
27.864
 20 
17.45
 11 
27.686
 21 
17.272
 0 
LINE
 8 
0
 62 
 7 
 10 
27.686
 20 
17.272
 11 
27.178
 21 
17.272
 0 
LINE
 8 
0
 62 
 7 
 10 
28.372
 20 
17.272
 11 
28.194
 21 
17.45
 0 
LINE
 8 
0
 62 
 7 
 10 
28.194
 20 
17.45
 11 
28.194
 21 
17.602
 0 
LINE
 8 
0
 62 
 7 
 10 
28.194
 20 
17.602
 11 
28.372
 21 
17.78
 0 
LINE
 8 
0
 62 
 7 
 10 
28.372
 20 
17.78
 11 
28.702
 21 
17.78
 0 
LINE
 8 
0
 62 
 7 
 10 
28.702
 20 
17.78
 11 
28.88
 21 
17.602
 0 
LINE
 8 
0
 62 
 7 
 10 
28.88
 20 
17.602
 11 
28.88
 21 
17.45
 0 
LINE
 8 
0
 62 
 7 
 10 
28.88
 20 
17.45
 11 
28.702
 21 
17.272
 0 
LINE
 8 
0
 62 
 7 
 10 
28.702
 20 
17.272
 11 
28.372
 21 
17.272
 0 
LINE
 8 
0
 62 
 7 
 10 
28.372
 20 
17.272
 11 
28.194
 21 
17.094
 0 
LINE
 8 
0
 62 
 7 
 10 
28.194
 20 
17.094
 11 
28.194
 21 
16.942
 0 
LINE
 8 
0
 62 
 7 
 10 
28.194
 20 
16.942
 11 
28.372
 21 
16.764
 0 
LINE
 8 
0
 62 
 7 
 10 
28.372
 20 
16.764
 11 
28.702
 21 
16.764
 0 
LINE
 8 
0
 62 
 7 
 10 
28.702
 20 
16.764
 11 
28.88
 21 
16.942
 0 
LINE
 8 
0
 62 
 7 
 10 
28.88
 20 
16.942
 11 
28.88
 21 
17.094
 0 
LINE
 8 
0
 62 
 7 
 10 
28.88
 20 
17.094
 11 
28.702
 21 
17.272
 0 
LINE
 8 
0
 62 
 7 
 10 
29.21
 20 
17.602
 11 
29.388
 21 
17.78
 0 
LINE
 8 
0
 62 
 7 
 10 
29.388
 20 
17.78
 11 
29.718
 21 
17.78
 0 
LINE
 8 
0
 62 
 7 
 10 
29.718
 20 
17.78
 11 
29.896
 21 
17.602
 0 
LINE
 8 
0
 62 
 7 
 10 
29.896
 20 
17.602
 11 
29.896
 21 
17.45
 0 
LINE
 8 
0
 62 
 7 
 10 
29.896
 20 
17.45
 11 
29.718
 21 
17.272
 0 
LINE
 8 
0
 62 
 7 
 10 
29.718
 20 
17.272
 11 
29.388
 21 
17.272
 0 
LINE
 8 
0
 62 
 7 
 10 
29.388
 20 
17.272
 11 
29.21
 21 
17.094
 0 
LINE
 8 
0
 62 
 7 
 10 
29.21
 20 
17.094
 11 
29.21
 21 
16.764
 0 
LINE
 8 
0
 62 
 7 
 10 
29.21
 20 
16.764
 11 
29.896
 21 
16.764
 0 
LINE
 8 
0
 62 
 7 
 10 
30.734
 20 
17.78
 11 
30.556
 21 
17.78
 0 
LINE
 8 
0
 62 
 7 
 10 
30.556
 20 
17.78
 11 
30.226
 21 
17.45
 0 
LINE
 8 
0
 62 
 7 
 10 
30.226
 20 
17.45
 11 
30.226
 21 
16.942
 0 
LINE
 8 
0
 62 
 7 
 10 
30.226
 20 
16.942
 11 
30.404
 21 
16.764
 0 
LINE
 8 
0
 62 
 7 
 10 
30.404
 20 
16.764
 11 
30.734
 21 
16.764
 0 
LINE
 8 
0
 62 
 7 
 10 
30.734
 20 
16.764
 11 
30.912
 21 
16.942
 0 
LINE
 8 
0
 62 
 7 
 10 
30.912
 20 
16.942
 11 
30.912
 21 
17.094
 0 
LINE
 8 
0
 62 
 7 
 10 
30.912
 20 
17.094
 11 
30.734
 21 
17.272
 0 
LINE
 8 
0
 62 
 7 
 10 
30.734
 20 
17.272
 11 
30.404
 21 
17.272
 0 
LINE
 8 
0
 62 
 7 
 10 
30.404
 20 
17.272
 11 
30.226
 21 
17.094
 0 
LINE
 8 
0
 62 
 7 
 10 
31.75
 20 
17.78
 11 
31.572
 21 
17.78
 0 
LINE
 8 
0
 62 
 7 
 10 
31.572
 20 
17.78
 11 
31.242
 21 
17.45
 0 
LINE
 8 
0
 62 
 7 
 10 
31.242
 20 
17.45
 11 
31.242
 21 
16.942
 0 
LINE
 8 
0
 62 
 7 
 10 
31.242
 20 
16.942
 11 
31.42
 21 
16.764
 0 
LINE
 8 
0
 62 
 7 
 10 
31.42
 20 
16.764
 11 
31.75
 21 
16.764
 0 
LINE
 8 
0
 62 
 7 
 10 
31.75
 20 
16.764
 11 
31.928
 21 
16.942
 0 
LINE
 8 
0
 62 
 7 
 10 
31.928
 20 
16.942
 11 
31.928
 21 
17.094
 0 
LINE
 8 
0
 62 
 7 
 10 
31.928
 20 
17.094
 11 
31.75
 21 
17.272
 0 
LINE
 8 
0
 62 
 7 
 10 
31.75
 20 
17.272
 11 
31.42
 21 
17.272
 0 
LINE
 8 
0
 62 
 7 
 10 
31.42
 20 
17.272
 11 
31.242
 21 
17.094
 0 
LINE
 8 
0
 62 
 7 
 10 
32.258
 20 
17.272
 11 
32.944
 21 
17.272
 0 
LINE
 8 
0
 62 
 7 
 10 
33.452
 20 
17.602
 11 
33.604
 21 
17.78
 0 
LINE
 8 
0
 62 
 7 
 10 
33.604
 20 
17.78
 11 
33.604
 21 
16.764
 0 
LINE
 8 
0
 62 
 7 
 10 
33.452
 20 
16.764
 11 
33.782
 21 
16.764
 0 
LINE
 8 
0
 62 
 7 
 10 
31.75
 20 
8.788
 11 
33.02
 21 
8.788
 0 
LINE
 8 
0
 62 
 7 
 10 
33.02
 20 
8.788
 11 
33.02
 21 
7.772
 0 
LINE
 8 
0
 62 
 7 
 10 
33.02
 20 
7.772
 11 
31.75
 21 
7.772
 0 
LINE
 8 
0
 62 
 7 
 10 
31.75
 20 
7.772
 11 
31.75
 21 
8.788
 0 
LINE
 8 
0
 62 
 7 
 10 
31.242
 20 
6.807
 11 
31.242
 21 
5.334
 0 
LINE
 8 
0
 62 
 7 
 10 
31.242
 20 
5.334
 11 
33.528
 21 
5.334
 0 
LINE
 8 
0
 62 
 7 
 10 
33.528
 20 
5.334
 11 
33.528
 21 
6.807
 0 
LINE
 8 
0
 62 
 7 
 10 
31.242
 20 
7.823
 11 
31.242
 21 
9.296
 0 
LINE
 8 
0
 62 
 7 
 10 
31.242
 20 
9.296
 11 
33.528
 21 
9.296
 0 
LINE
 8 
0
 62 
 7 
 10 
33.528
 20 
9.296
 11 
33.528
 21 
7.823
 0 
LINE
 8 
0
 62 
 7 
 10 
32.385
 20 
4.293
 11 
32.233
 21 
4.445
 0 
LINE
 8 
0
 62 
 7 
 10 
32.233
 20 
4.445
 11 
31.902
 21 
4.445
 0 
LINE
 8 
0
 62 
 7 
 10 
31.902
 20 
4.445
 11 
31.75
 21 
4.293
 0 
LINE
 8 
0
 62 
 7 
 10 
31.75
 20 
4.293
 11 
31.75
 21 
3.632
 0 
LINE
 8 
0
 62 
 7 
 10 
31.75
 20 
3.632
 11 
31.902
 21 
3.48
 0 
LINE
 8 
0
 62 
 7 
 10 
31.902
 20 
3.48
 11 
32.233
 21 
3.48
 0 
LINE
 8 
0
 62 
 7 
 10 
32.233
 20 
3.48
 11 
32.385
 21 
3.632
 0 
LINE
 8 
0
 62 
 7 
 10 
32.715
 20 
4.293
 11 
32.868
 21 
4.445
 0 
LINE
 8 
0
 62 
 7 
 10 
32.868
 20 
4.445
 11 
33.198
 21 
4.445
 0 
LINE
 8 
0
 62 
 7 
 10 
33.198
 20 
4.445
 11 
33.35
 21 
4.293
 0 
LINE
 8 
0
 62 
 7 
 10 
33.35
 20 
4.293
 11 
33.35
 21 
4.115
 0 
LINE
 8 
0
 62 
 7 
 10 
33.35
 20 
4.115
 11 
33.198
 21 
3.962
 0 
LINE
 8 
0
 62 
 7 
 10 
33.198
 20 
3.962
 11 
32.868
 21 
3.962
 0 
LINE
 8 
0
 62 
 7 
 10 
32.868
 20 
3.962
 11 
32.715
 21 
3.81
 0 
LINE
 8 
0
 62 
 7 
 10 
32.715
 20 
3.81
 11 
32.715
 21 
3.48
 0 
LINE
 8 
0
 62 
 7 
 10 
32.715
 20 
3.48
 11 
33.35
 21 
3.48
 0 
LINE
 8 
0
 62 
 7 
 10 
28.575
 20 
6.858
 11 
29.845
 21 
6.858
 0 
LINE
 8 
0
 62 
 7 
 10 
29.845
 20 
6.858
 11 
29.845
 21 
5.842
 0 
LINE
 8 
0
 62 
 7 
 10 
29.845
 20 
5.842
 11 
28.575
 21 
5.842
 0 
LINE
 8 
0
 62 
 7 
 10 
28.575
 20 
5.842
 11 
28.575
 21 
6.858
 0 
LINE
 8 
0
 62 
 7 
 10 
28.575
 20 
8.788
 11 
29.845
 21 
8.788
 0 
LINE
 8 
0
 62 
 7 
 10 
29.845
 20 
8.788
 11 
29.845
 21 
7.772
 0 
LINE
 8 
0
 62 
 7 
 10 
29.845
 20 
7.772
 11 
28.575
 21 
7.772
 0 
LINE
 8 
0
 62 
 7 
 10 
28.575
 20 
7.772
 11 
28.575
 21 
8.788
 0 
LINE
 8 
0
 62 
 7 
 10 
28.067
 20 
6.807
 11 
28.067
 21 
5.334
 0 
LINE
 8 
0
 62 
 7 
 10 
28.067
 20 
5.334
 11 
30.353
 21 
5.334
 0 
LINE
 8 
0
 62 
 7 
 10 
30.353
 20 
5.334
 11 
30.353
 21 
6.807
 0 
LINE
 8 
0
 62 
 7 
 10 
28.067
 20 
7.823
 11 
28.067
 21 
9.296
 0 
LINE
 8 
0
 62 
 7 
 10 
28.067
 20 
9.296
 11 
30.353
 21 
9.296
 0 
LINE
 8 
0
 62 
 7 
 10 
30.353
 20 
9.296
 11 
30.353
 21 
7.823
 0 
LINE
 8 
0
 62 
 7 
 10 
29.21
 20 
4.293
 11 
29.058
 21 
4.445
 0 
LINE
 8 
0
 62 
 7 
 10 
29.058
 20 
4.445
 11 
28.727
 21 
4.445
 0 
LINE
 8 
0
 62 
 7 
 10 
28.727
 20 
4.445
 11 
28.575
 21 
4.293
 0 
LINE
 8 
0
 62 
 7 
 10 
28.575
 20 
4.293
 11 
28.575
 21 
3.632
 0 
LINE
 8 
0
 62 
 7 
 10 
28.575
 20 
3.632
 11 
28.727
 21 
3.48
 0 
LINE
 8 
0
 62 
 7 
 10 
28.727
 20 
3.48
 11 
29.058
 21 
3.48
 0 
LINE
 8 
0
 62 
 7 
 10 
29.058
 20 
3.48
 11 
29.21
 21 
3.632
 0 
LINE
 8 
0
 62 
 7 
 10 
29.693
 20 
4.293
 11 
29.87
 21 
4.445
 0 
LINE
 8 
0
 62 
 7 
 10 
29.87
 20 
4.445
 11 
29.87
 21 
3.48
 0 
LINE
 8 
0
 62 
 7 
 10 
29.693
 20 
3.48
 11 
30.023
 21 
3.48
 0 
LINE
 8 
0
 62 
 7 
 10 
18.466
 20 
15.875
 11 
17.78
 21 
15.875
 0 
LINE
 8 
0
 62 
 7 
 10 
17.78
 20 
15.875
 11 
17.78
 21 
14.859
 0 
LINE
 8 
0
 62 
 7 
 10 
17.78
 20 
15.367
 11 
18.288
 21 
15.367
 0 
LINE
 8 
0
 62 
 7 
 10 
18.974
 20 
15.875
 11 
19.126
 21 
15.875
 0 
LINE
 8 
0
 62 
 7 
 10 
19.126
 20 
15.875
 11 
19.126
 21 
14.859
 0 
LINE
 8 
0
 62 
 7 
 10 
18.974
 20 
14.859
 11 
19.304
 21 
14.859
 0 
LINE
 8 
0
 62 
 7 
 10 
19.99
 20 
15.545
 11 
20.32
 21 
15.545
 0 
LINE
 8 
0
 62 
 7 
 10 
20.32
 20 
15.545
 11 
20.498
 21 
15.367
 0 
LINE
 8 
0
 62 
 7 
 10 
20.498
 20 
15.367
 11 
20.498
 21 
14.859
 0 
LINE
 8 
0
 62 
 7 
 10 
20.498
 20 
15.189
 11 
19.99
 21 
15.189
 0 
LINE
 8 
0
 62 
 7 
 10 
19.99
 20 
15.189
 11 
19.812
 21 
15.037
 0 
LINE
 8 
0
 62 
 7 
 10 
19.812
 20 
15.037
 11 
19.99
 21 
14.859
 0 
LINE
 8 
0
 62 
 7 
 10 
19.99
 20 
14.859
 11 
20.32
 21 
14.859
 0 
LINE
 8 
0
 62 
 7 
 10 
20.32
 20 
14.859
 11 
20.498
 21 
15.037
 0 
LINE
 8 
0
 62 
 7 
 10 
21.514
 20 
15.545
 11 
21.006
 21 
15.545
 0 
LINE
 8 
0
 62 
 7 
 10 
21.006
 20 
15.545
 11 
20.828
 21 
15.367
 0 
LINE
 8 
0
 62 
 7 
 10 
20.828
 20 
15.367
 11 
21.006
 21 
15.189
 0 
LINE
 8 
0
 62 
 7 
 10 
21.006
 20 
15.189
 11 
21.336
 21 
15.189
 0 
LINE
 8 
0
 62 
 7 
 10 
21.336
 20 
15.189
 11 
21.514
 21 
15.037
 0 
LINE
 8 
0
 62 
 7 
 10 
21.514
 20 
15.037
 11 
21.336
 21 
14.859
 0 
LINE
 8 
0
 62 
 7 
 10 
21.336
 20 
14.859
 11 
20.828
 21 
14.859
 0 
LINE
 8 
0
 62 
 7 
 10 
21.844
 20 
15.875
 11 
21.844
 21 
14.859
 0 
LINE
 8 
0
 62 
 7 
 10 
21.844
 20 
15.189
 11 
22.174
 21 
15.545
 0 
LINE
 8 
0
 62 
 7 
 10 
22.174
 20 
15.545
 11 
22.352
 21 
15.545
 0 
LINE
 8 
0
 62 
 7 
 10 
22.352
 20 
15.545
 11 
22.53
 21 
15.367
 0 
LINE
 8 
0
 62 
 7 
 10 
22.53
 20 
15.367
 11 
22.53
 21 
14.859
 0 
LINE
 8 
0
 62 
 7 
 10 
24.562
 20 
15.697
 11 
24.384
 21 
15.875
 0 
LINE
 8 
0
 62 
 7 
 10 
24.384
 20 
15.875
 11 
24.054
 21 
15.875
 0 
LINE
 8 
0
 62 
 7 
 10 
24.054
 20 
15.875
 11 
23.876
 21 
15.697
 0 
LINE
 8 
0
 62 
 7 
 10 
23.876
 20 
15.697
 11 
23.876
 21 
15.545
 0 
LINE
 8 
0
 62 
 7 
 10 
23.876
 20 
15.545
 11 
24.054
 21 
15.367
 0 
LINE
 8 
0
 62 
 7 
 10 
24.054
 20 
15.367
 11 
24.384
 21 
15.367
 0 
LINE
 8 
0
 62 
 7 
 10 
24.384
 20 
15.367
 11 
24.562
 21 
15.189
 0 
LINE
 8 
0
 62 
 7 
 10 
24.562
 20 
15.189
 11 
24.562
 21 
15.037
 0 
LINE
 8 
0
 62 
 7 
 10 
24.562
 20 
15.037
 11 
24.384
 21 
14.859
 0 
LINE
 8 
0
 62 
 7 
 10 
24.384
 20 
14.859
 11 
24.054
 21 
14.859
 0 
LINE
 8 
0
 62 
 7 
 10 
24.054
 20 
14.859
 11 
23.876
 21 
15.037
 0 
LINE
 8 
0
 62 
 7 
 10 
25.07
 20 
15.875
 11 
25.07
 21 
15.037
 0 
LINE
 8 
0
 62 
 7 
 10 
25.07
 20 
15.037
 11 
25.222
 21 
14.859
 0 
LINE
 8 
0
 62 
 7 
 10 
25.222
 20 
14.859
 11 
25.4
 21 
14.859
 0 
LINE
 8 
0
 62 
 7 
 10 
25.4
 20 
14.859
 11 
25.578
 21 
15.037
 0 
LINE
 8 
0
 62 
 7 
 10 
24.892
 20 
15.545
 11 
25.4
 21 
15.545
 0 
LINE
 8 
0
 62 
 7 
 10 
26.238
 20 
15.875
 11 
26.238
 21 
15.697
 0 
LINE
 8 
0
 62 
 7 
 10 
26.086
 20 
14.859
 11 
26.416
 21 
14.859
 0 
LINE
 8 
0
 62 
 7 
 10 
26.086
 20 
15.367
 11 
26.238
 21 
15.367
 0 
LINE
 8 
0
 62 
 7 
 10 
26.238
 20 
15.367
 11 
26.238
 21 
14.859
 0 
LINE
 8 
0
 62 
 7 
 10 
27.61
 20 
15.367
 11 
27.432
 21 
15.545
 0 
LINE
 8 
0
 62 
 7 
 10 
27.432
 20 
15.545
 11 
27.102
 21 
15.545
 0 
LINE
 8 
0
 62 
 7 
 10 
27.102
 20 
15.545
 11 
26.924
 21 
15.367
 0 
LINE
 8 
0
 62 
 7 
 10 
26.924
 20 
15.367
 11 
26.924
 21 
15.037
 0 
LINE
 8 
0
 62 
 7 
 10 
26.924
 20 
15.037
 11 
27.102
 21 
14.859
 0 
LINE
 8 
0
 62 
 7 
 10 
27.102
 20 
14.859
 11 
27.432
 21 
14.859
 0 
LINE
 8 
0
 62 
 7 
 10 
27.432
 20 
14.859
 11 
27.61
 21 
15.037
 0 
LINE
 8 
0
 62 
 7 
 10 
27.94
 20 
15.875
 11 
28.118
 21 
15.875
 0 
LINE
 8 
0
 62 
 7 
 10 
28.118
 20 
15.875
 11 
28.118
 21 
14.859
 0 
LINE
 8 
0
 62 
 7 
 10 
28.626
 20 
15.545
 11 
28.27
 21 
15.189
 0 
LINE
 8 
0
 62 
 7 
 10 
28.27
 20 
15.189
 11 
28.626
 21 
14.859
 0 
LINE
 8 
0
 62 
 7 
 10 
28.118
 20 
15.189
 11 
28.27
 21 
15.189
 0 
LINE
 8 
0
 62 
 7 
 10 
29.972
 20 
15.545
 11 
29.972
 21 
15.189
 0 
LINE
 8 
0
 62 
 7 
 10 
29.972
 20 
15.189
 11 
30.302
 21 
14.859
 0 
LINE
 8 
0
 62 
 7 
 10 
30.302
 20 
14.859
 11 
30.658
 21 
15.189
 0 
LINE
 8 
0
 62 
 7 
 10 
30.658
 20 
15.189
 11 
30.658
 21 
15.545
 0 
LINE
 8 
0
 62 
 7 
 10 
31.166
 20 
15.697
 11 
31.318
 21 
15.875
 0 
LINE
 8 
0
 62 
 7 
 10 
31.318
 20 
15.875
 11 
31.318
 21 
14.859
 0 
LINE
 8 
0
 62 
 7 
 10 
31.166
 20 
14.859
 11 
31.496
 21 
14.859
 0 
LINE
 8 
0
 62 
 7 
 10 
32.334
 20 
14.859
 11 
32.182
 21 
14.859
 0 
LINE
 8 
0
 62 
 7 
 10 
32.182
 20 
14.859
 11 
32.182
 21 
15.037
 0 
LINE
 8 
0
 62 
 7 
 10 
32.182
 20 
15.037
 11 
32.334
 21 
15.037
 0 
LINE
 8 
0
 62 
 7 
 10 
32.334
 20 
15.037
 11 
32.334
 21 
14.859
 0 
LINE
 8 
0
 62 
 7 
 10 
33.02
 20 
15.037
 11 
33.02
 21 
15.697
 0 
LINE
 8 
0
 62 
 7 
 10 
33.02
 20 
15.697
 11 
33.198
 21 
15.875
 0 
LINE
 8 
0
 62 
 7 
 10 
33.198
 20 
15.875
 11 
33.528
 21 
15.875
 0 
LINE
 8 
0
 62 
 7 
 10 
33.528
 20 
15.875
 11 
33.706
 21 
15.697
 0 
LINE
 8 
0
 62 
 7 
 10 
33.706
 20 
15.697
 11 
33.706
 21 
15.037
 0 
LINE
 8 
0
 62 
 7 
 10 
33.706
 20 
15.037
 11 
33.528
 21 
14.859
 0 
LINE
 8 
0
 62 
 7 
 10 
33.528
 20 
14.859
 11 
33.198
 21 
14.859
 0 
LINE
 8 
0
 62 
 7 
 10 
33.198
 20 
14.859
 11 
33.02
 21 
15.037
 0 
LINE
 8 
0
 62 
 7 
 10 
33.02
 20 
15.037
 11 
33.706
 21 
15.697
 0 
LINE
 8 
0
 62 
 7 
 10 
9.754
 20 
7.061
 11 
10.592
 21 
7.061
 0 
LINE
 8 
0
 62 
 7 
 10 
10.592
 20 
7.061
 11 
10.592
 21 
5.664
 0 
LINE
 8 
0
 62 
 7 
 10 
10.592
 20 
5.664
 11 
9.754
 21 
5.664
 0 
LINE
 8 
0
 62 
 7 
 10 
9.754
 20 
5.664
 11 
9.754
 21 
7.061
 0 
LINE
 8 
0
 62 
 7 
 10 
7.137
 20 
6.985
 11 
6.985
 21 
6.833
 0 
LINE
 8 
0
 62 
 7 
 10 
6.985
 20 
6.833
 11 
6.985
 21 
6.502
 0 
LINE
 8 
0
 62 
 7 
 10 
6.985
 20 
6.502
 11 
7.137
 21 
6.35
 0 
LINE
 8 
0
 62 
 7 
 10 
7.137
 20 
6.35
 11 
7.315
 21 
6.35
 0 
LINE
 8 
0
 62 
 7 
 10 
7.315
 20 
6.35
 11 
7.468
 21 
6.502
 0 
LINE
 8 
0
 62 
 7 
 10 
7.468
 20 
6.502
 11 
7.468
 21 
6.833
 0 
LINE
 8 
0
 62 
 7 
 10 
7.468
 20 
6.833
 11 
7.62
 21 
6.985
 0 
LINE
 8 
0
 62 
 7 
 10 
7.62
 20 
6.985
 11 
7.798
 21 
6.985
 0 
LINE
 8 
0
 62 
 7 
 10 
7.798
 20 
6.985
 11 
7.95
 21 
6.833
 0 
LINE
 8 
0
 62 
 7 
 10 
7.95
 20 
6.833
 11 
7.95
 21 
6.502
 0 
LINE
 8 
0
 62 
 7 
 10 
7.95
 20 
6.502
 11 
7.798
 21 
6.35
 0 
LINE
 8 
0
 62 
 7 
 10 
6.985
 20 
7.315
 11 
7.95
 21 
7.315
 0 
LINE
 8 
0
 62 
 7 
 10 
7.95
 20 
7.315
 11 
7.62
 21 
7.645
 0 
LINE
 8 
0
 62 
 7 
 10 
7.62
 20 
7.645
 11 
7.95
 21 
7.95
 0 
LINE
 8 
0
 62 
 7 
 10 
7.95
 20 
7.95
 11 
6.985
 21 
7.95
 0 
LINE
 8 
0
 62 
 7 
 10 
7.62
 20 
7.645
 11 
7.468
 21 
7.645
 0 
LINE
 8 
0
 62 
 7 
 10 
7.137
 20 
8.433
 11 
6.985
 21 
8.611
 0 
LINE
 8 
0
 62 
 7 
 10 
6.985
 20 
8.611
 11 
7.95
 21 
8.611
 0 
LINE
 8 
0
 62 
 7 
 10 
7.95
 20 
8.433
 11 
7.95
 21 
8.763
 0 
LINE
 8 
0
 62 
 7 
 10 
10.795
 20 
6.833
 11 
12.065
 21 
6.833
 0 
LINE
 8 
0
 62 
 7 
 10 
8.255
 20 
6.833
 11 
8.255
 21 
13.614
 0 
LINE
 8 
0
 62 
 7 
 10 
12.065
 20 
6.833
 11 
12.065
 21 
13.614
 0 
LINE
 8 
0
 62 
 7 
 10 
8.255
 20 
13.614
 11 
9.525
 21 
13.614
 0 
LINE
 8 
0
 62 
 7 
 10 
9.525
 20 
8.534
 11 
10.795
 21 
8.534
 0 
LINE
 8 
0
 62 
 7 
 10 
10.795
 20 
8.534
 11 
10.795
 21 
11.709
 0 
LINE
 8 
0
 62 
 7 
 10 
10.795
 20 
11.709
 11 
9.525
 21 
11.709
 0 
LINE
 8 
0
 62 
 7 
 10 
9.525
 20 
11.709
 11 
9.525
 21 
8.534
 0 
LINE
 8 
0
 62 
 7 
 10 
8.255
 20 
6.833
 11 
9.525
 21 
6.833
 0 
LINE
 8 
0
 62 
 7 
 10 
10.795
 20 
13.614
 11 
12.065
 21 
13.614
 0 
LINE
 8 
0
 62 
 7 
 10 
9.754
 20 
14.783
 11 
10.592
 21 
14.783
 0 
LINE
 8 
0
 62 
 7 
 10 
10.592
 20 
14.783
 11 
10.592
 21 
13.386
 0 
LINE
 8 
0
 62 
 7 
 10 
10.592
 20 
13.386
 11 
9.754
 21 
13.386
 0 
LINE
 8 
0
 62 
 7 
 10 
9.754
 20 
13.386
 11 
9.754
 21 
14.783
 0 
ENDSEC
 0 
EOF
