 0 
SECTION
 2 
HEADER
 9 
$ACADVER
 1 
AC1004
 9 
$EXTMIN
 10 
0.0
 20 
0.0
 9 
$EXTMAX
 10 
1.8
 20 
0.75
 9 
$LIMMIN
 10 
0.0
 20 
0.0
 9 
$LIMMAX
 10 
1.8
 20 
0.75
 9 
$INSBASE
 10 
0.0
 20 
0.0
 9 
$VIEWCTR
 10 
0.9
 20 
0.375
 9 
$VIEWSIZE
 40 
0.75
 9 
$ORTHOMODE
 70 
 0 
 9 
$REGENMODE
 70 
 1 
 9 
$FILLMODE
 70 
 1 
 9 
$QTEXTMODE
 70 
 0 
 9 
$DRAGMODE
 70 
 2 
 9 
$LTSCALE
 40 
1.0
 9 
$OSMODE
 70 
 0 
 9 
$ATTMODE
 70 
 1 
 9 
$TEXTSIZE
 40 
0.2
 9 
$TRACEWID
 40 
0.05
 9 
$TEXTSTYLE
 7 
STANDARD
 9 
$CLAYER
 8 
0
 9 
$CELTYPE
 6 
BYLAYER
 9 
$CECOLOR
 62 
 256 
 9 
$DIMSCALE
 40 
1.0
 9 
$DIMLFAC
 40 
1.0
 9 
$LUNITS
 70 
 2 
 9 
$LUPREC
 70 
 4 
 9 
$AXISMODE
 70 
 0 
 9 
$AXISUNIT
 10 
0.0
 20 
0.0
 9 
$SKETCHINC
 40 
0.1
 9 
$MENU
 1 
acad
 9 
$ELEVATION
 40 
0.0
 9 
$THICKNESS
 40 
0.0
 9 
$VIEWDIR
 10 
0.0
 20 
0.0
 30 
1.0
 9 
$LIMCHECK
 70 
 0 
 9 
$BLIPMODE
 70 
 1 
 9 
$FASTZOOM
 70 
 1 
 9 
$SKPOLY
 70 
 0 
 9 
$ANGBASE
 50 
0.0
 9 
$ANGDIR
 70 
 0 
 9 
$PDMODE
 70 
 0 
 9 
$PDSIZE
 40 
0.0
 9 
$PLINEWID
 40 
0.0
 9 
$COORDS
 70 
 0 
 9 
$ATTDIA
 70 
 0 
 9 
$ATTREQ
 70 
 1 
 0 
ENDSEC
 0 
SECTION
 2 
TABLES
 0 
TABLE
 2 
LTYPE
 70 
 10 
 0 
LTYPE
 2 
CONTINUOUS
 70 
 64 
 3 
Solid line
 72 
 65 
 73 
 0 
 40 
0.0
 0 
ENDTAB
 0 
TABLE
 2 
LAYER
 70 
 153 
 0 
LAYER
 2 
0
 70 
 64 
 62 
 7 
 6 
CONTINUOUS
 0 
ENDTAB
 0 
ENDSEC
 0 
SECTION
 2 
BLOCKS
 0 
ENDSEC
 0 
SECTION
 2 
ENTITIES
 0 
LINE
 8 
0
 62 
 7 
 10 
0.0
 20 
0.75
 11 
1.8
 21 
0.75
 0 
LINE
 8 
0
 62 
 7 
 10 
1.8
 20 
0.75
 11 
1.8
 21 
0.0
 0 
LINE
 8 
0
 62 
 7 
 10 
1.8
 20 
0.0
 11 
0.0
 21 
0.0
 0 
LINE
 8 
0
 62 
 7 
 10 
0.0
 20 
0.0
 11 
0.0
 21 
0.75
 0 
LINE
 8 
0
 62 
 7 
 10 
0.658
 20 
0.278
 11 
0.691
 21 
0.278
 0 
LINE
 8 
0
 62 
 7 
 10 
0.691
 20 
0.278
 11 
0.691
 21 
0.223
 0 
LINE
 8 
0
 62 
 7 
 10 
0.691
 20 
0.223
 11 
0.658
 21 
0.223
 0 
LINE
 8 
0
 62 
 7 
 10 
0.658
 20 
0.223
 11 
0.658
 21 
0.278
 0 
LINE
 8 
0
 62 
 7 
 10 
0.7
 20 
0.269
 11 
0.75
 21 
0.269
 0 
LINE
 8 
0
 62 
 7 
 10 
0.6
 20 
0.269
 11 
0.6
 21 
0.536
 0 
LINE
 8 
0
 62 
 7 
 10 
0.75
 20 
0.269
 11 
0.75
 21 
0.536
 0 
LINE
 8 
0
 62 
 7 
 10 
0.6
 20 
0.536
 11 
0.65
 21 
0.536
 0 
LINE
 8 
0
 62 
 7 
 10 
0.65
 20 
0.336
 11 
0.7
 21 
0.336
 0 
LINE
 8 
0
 62 
 7 
 10 
0.7
 20 
0.336
 11 
0.7
 21 
0.461
 0 
LINE
 8 
0
 62 
 7 
 10 
0.7
 20 
0.461
 11 
0.65
 21 
0.461
 0 
LINE
 8 
0
 62 
 7 
 10 
0.65
 20 
0.461
 11 
0.65
 21 
0.336
 0 
LINE
 8 
0
 62 
 7 
 10 
0.6
 20 
0.269
 11 
0.65
 21 
0.269
 0 
LINE
 8 
0
 62 
 7 
 10 
0.7
 20 
0.536
 11 
0.75
 21 
0.536
 0 
LINE
 8 
0
 62 
 7 
 10 
0.658
 20 
0.582
 11 
0.691
 21 
0.582
 0 
LINE
 8 
0
 62 
 7 
 10 
0.691
 20 
0.582
 11 
0.691
 21 
0.527
 0 
LINE
 8 
0
 62 
 7 
 10 
0.691
 20 
0.527
 11 
0.658
 21 
0.527
 0 
LINE
 8 
0
 62 
 7 
 10 
0.658
 20 
0.527
 11 
0.658
 21 
0.582
 0 
LINE
 8 
0
 62 
 7 
 10 
0.65
 20 
0.619
 11 
0.644
 21 
0.625
 0 
LINE
 8 
0
 62 
 7 
 10 
0.644
 20 
0.625
 11 
0.631
 21 
0.625
 0 
LINE
 8 
0
 62 
 7 
 10 
0.631
 20 
0.625
 11 
0.625
 21 
0.619
 0 
LINE
 8 
0
 62 
 7 
 10 
0.625
 20 
0.619
 11 
0.625
 21 
0.612
 0 
LINE
 8 
0
 62 
 7 
 10 
0.625
 20 
0.612
 11 
0.631
 21 
0.606
 0 
LINE
 8 
0
 62 
 7 
 10 
0.631
 20 
0.606
 11 
0.644
 21 
0.606
 0 
LINE
 8 
0
 62 
 7 
 10 
0.644
 20 
0.606
 11 
0.65
 21 
0.6
 0 
LINE
 8 
0
 62 
 7 
 10 
0.65
 20 
0.6
 11 
0.65
 21 
0.593
 0 
LINE
 8 
0
 62 
 7 
 10 
0.65
 20 
0.593
 11 
0.644
 21 
0.587
 0 
LINE
 8 
0
 62 
 7 
 10 
0.644
 20 
0.587
 11 
0.631
 21 
0.587
 0 
LINE
 8 
0
 62 
 7 
 10 
0.631
 20 
0.587
 11 
0.625
 21 
0.593
 0 
LINE
 8 
0
 62 
 7 
 10 
0.663
 20 
0.625
 11 
0.663
 21 
0.587
 0 
LINE
 8 
0
 62 
 7 
 10 
0.663
 20 
0.587
 11 
0.676
 21 
0.6
 0 
LINE
 8 
0
 62 
 7 
 10 
0.676
 20 
0.6
 11 
0.688
 21 
0.587
 0 
LINE
 8 
0
 62 
 7 
 10 
0.688
 20 
0.587
 11 
0.688
 21 
0.625
 0 
LINE
 8 
0
 62 
 7 
 10 
0.676
 20 
0.6
 11 
0.676
 21 
0.606
 0 
LINE
 8 
0
 62 
 7 
 10 
0.701
 20 
0.619
 11 
0.707
 21 
0.625
 0 
LINE
 8 
0
 62 
 7 
 10 
0.707
 20 
0.625
 11 
0.72
 21 
0.625
 0 
LINE
 8 
0
 62 
 7 
 10 
0.72
 20 
0.625
 11 
0.726
 21 
0.619
 0 
LINE
 8 
0
 62 
 7 
 10 
0.726
 20 
0.619
 11 
0.726
 21 
0.612
 0 
LINE
 8 
0
 62 
 7 
 10 
0.726
 20 
0.612
 11 
0.72
 21 
0.606
 0 
LINE
 8 
0
 62 
 7 
 10 
0.72
 20 
0.606
 11 
0.707
 21 
0.606
 0 
LINE
 8 
0
 62 
 7 
 10 
0.707
 20 
0.606
 11 
0.701
 21 
0.6
 0 
LINE
 8 
0
 62 
 7 
 10 
0.701
 20 
0.6
 11 
0.701
 21 
0.587
 0 
LINE
 8 
0
 62 
 7 
 10 
0.701
 20 
0.587
 11 
0.726
 21 
0.587
 0 
LINE
 8 
0
 62 
 7 
 10 
0.375
 20 
0.187
 11 
0.375
 21 
0.225
 0 
LINE
 8 
0
 62 
 7 
 10 
0.375
 20 
0.225
 11 
0.394
 21 
0.225
 0 
LINE
 8 
0
 62 
 7 
 10 
0.394
 20 
0.225
 11 
0.4
 21 
0.219
 0 
LINE
 8 
0
 62 
 7 
 10 
0.4
 20 
0.219
 11 
0.4
 21 
0.212
 0 
LINE
 8 
0
 62 
 7 
 10 
0.4
 20 
0.212
 11 
0.394
 21 
0.206
 0 
LINE
 8 
0
 62 
 7 
 10 
0.394
 20 
0.206
 11 
0.375
 21 
0.206
 0 
LINE
 8 
0
 62 
 7 
 10 
0.381
 20 
0.206
 11 
0.4
 21 
0.187
 0 
LINE
 8 
0
 62 
 7 
 10 
0.413
 20 
0.2
 11 
0.438
 21 
0.2
 0 
LINE
 8 
0
 62 
 7 
 10 
0.438
 20 
0.2
 11 
0.438
 21 
0.206
 0 
LINE
 8 
0
 62 
 7 
 10 
0.438
 20 
0.206
 11 
0.432
 21 
0.212
 0 
LINE
 8 
0
 62 
 7 
 10 
0.432
 20 
0.212
 11 
0.419
 21 
0.212
 0 
LINE
 8 
0
 62 
 7 
 10 
0.419
 20 
0.212
 11 
0.413
 21 
0.206
 0 
LINE
 8 
0
 62 
 7 
 10 
0.413
 20 
0.206
 11 
0.413
 21 
0.193
 0 
LINE
 8 
0
 62 
 7 
 10 
0.413
 20 
0.193
 11 
0.419
 21 
0.187
 0 
LINE
 8 
0
 62 
 7 
 10 
0.419
 20 
0.187
 11 
0.432
 21 
0.187
 0 
LINE
 8 
0
 62 
 7 
 10 
0.476
 20 
0.212
 11 
0.457
 21 
0.212
 0 
LINE
 8 
0
 62 
 7 
 10 
0.457
 20 
0.212
 11 
0.451
 21 
0.206
 0 
LINE
 8 
0
 62 
 7 
 10 
0.451
 20 
0.206
 11 
0.457
 21 
0.2
 0 
LINE
 8 
0
 62 
 7 
 10 
0.457
 20 
0.2
 11 
0.47
 21 
0.2
 0 
LINE
 8 
0
 62 
 7 
 10 
0.47
 20 
0.2
 11 
0.476
 21 
0.193
 0 
LINE
 8 
0
 62 
 7 
 10 
0.476
 20 
0.193
 11 
0.47
 21 
0.187
 0 
LINE
 8 
0
 62 
 7 
 10 
0.47
 20 
0.187
 11 
0.451
 21 
0.187
 0 
LINE
 8 
0
 62 
 7 
 10 
0.489
 20 
0.2
 11 
0.514
 21 
0.2
 0 
LINE
 8 
0
 62 
 7 
 10 
0.514
 20 
0.2
 11 
0.514
 21 
0.206
 0 
LINE
 8 
0
 62 
 7 
 10 
0.514
 20 
0.206
 11 
0.508
 21 
0.212
 0 
LINE
 8 
0
 62 
 7 
 10 
0.508
 20 
0.212
 11 
0.495
 21 
0.212
 0 
LINE
 8 
0
 62 
 7 
 10 
0.495
 20 
0.212
 11 
0.489
 21 
0.206
 0 
LINE
 8 
0
 62 
 7 
 10 
0.489
 20 
0.206
 11 
0.489
 21 
0.193
 0 
LINE
 8 
0
 62 
 7 
 10 
0.489
 20 
0.193
 11 
0.495
 21 
0.187
 0 
LINE
 8 
0
 62 
 7 
 10 
0.495
 20 
0.187
 11 
0.508
 21 
0.187
 0 
LINE
 8 
0
 62 
 7 
 10 
0.533
 20 
0.225
 11 
0.533
 21 
0.193
 0 
LINE
 8 
0
 62 
 7 
 10 
0.533
 20 
0.193
 11 
0.54
 21 
0.187
 0 
LINE
 8 
0
 62 
 7 
 10 
0.54
 20 
0.187
 11 
0.546
 21 
0.187
 0 
LINE
 8 
0
 62 
 7 
 10 
0.546
 20 
0.187
 11 
0.552
 21 
0.193
 0 
LINE
 8 
0
 62 
 7 
 10 
0.527
 20 
0.212
 11 
0.546
 21 
0.212
 0 
LINE
 8 
0
 62 
 7 
 10 
0.6
 20 
0.187
 11 
0.6
 21 
0.225
 0 
LINE
 8 
0
 62 
 7 
 10 
0.6
 20 
0.225
 11 
0.619
 21 
0.225
 0 
LINE
 8 
0
 62 
 7 
 10 
0.619
 20 
0.225
 11 
0.625
 21 
0.219
 0 
LINE
 8 
0
 62 
 7 
 10 
0.625
 20 
0.219
 11 
0.625
 21 
0.212
 0 
LINE
 8 
0
 62 
 7 
 10 
0.625
 20 
0.212
 11 
0.619
 21 
0.206
 0 
LINE
 8 
0
 62 
 7 
 10 
0.619
 20 
0.206
 11 
0.6
 21 
0.206
 0 
LINE
 8 
0
 62 
 7 
 10 
0.638
 20 
0.212
 11 
0.638
 21 
0.187
 0 
LINE
 8 
0
 62 
 7 
 10 
0.638
 20 
0.2
 11 
0.651
 21 
0.212
 0 
LINE
 8 
0
 62 
 7 
 10 
0.651
 20 
0.212
 11 
0.657
 21 
0.212
 0 
LINE
 8 
0
 62 
 7 
 10 
0.657
 20 
0.212
 11 
0.663
 21 
0.206
 0 
LINE
 8 
0
 62 
 7 
 10 
0.701
 20 
0.206
 11 
0.695
 21 
0.212
 0 
LINE
 8 
0
 62 
 7 
 10 
0.695
 20 
0.212
 11 
0.682
 21 
0.212
 0 
LINE
 8 
0
 62 
 7 
 10 
0.682
 20 
0.212
 11 
0.676
 21 
0.206
 0 
LINE
 8 
0
 62 
 7 
 10 
0.676
 20 
0.206
 11 
0.676
 21 
0.193
 0 
LINE
 8 
0
 62 
 7 
 10 
0.676
 20 
0.193
 11 
0.682
 21 
0.187
 0 
LINE
 8 
0
 62 
 7 
 10 
0.682
 20 
0.187
 11 
0.695
 21 
0.187
 0 
LINE
 8 
0
 62 
 7 
 10 
0.695
 20 
0.187
 11 
0.701
 21 
0.193
 0 
LINE
 8 
0
 62 
 7 
 10 
0.701
 20 
0.193
 11 
0.701
 21 
0.206
 0 
LINE
 8 
0
 62 
 7 
 10 
0.739
 20 
0.206
 11 
0.733
 21 
0.212
 0 
LINE
 8 
0
 62 
 7 
 10 
0.733
 20 
0.212
 11 
0.72
 21 
0.212
 0 
LINE
 8 
0
 62 
 7 
 10 
0.72
 20 
0.212
 11 
0.714
 21 
0.206
 0 
LINE
 8 
0
 62 
 7 
 10 
0.714
 20 
0.206
 11 
0.714
 21 
0.193
 0 
LINE
 8 
0
 62 
 7 
 10 
0.714
 20 
0.193
 11 
0.72
 21 
0.187
 0 
LINE
 8 
0
 62 
 7 
 10 
0.72
 20 
0.187
 11 
0.727
 21 
0.187
 0 
LINE
 8 
0
 62 
 7 
 10 
0.727
 20 
0.187
 11 
0.739
 21 
0.2
 0 
LINE
 8 
0
 62 
 7 
 10 
0.739
 20 
0.212
 11 
0.739
 21 
0.181
 0 
LINE
 8 
0
 62 
 7 
 10 
0.739
 20 
0.181
 11 
0.733
 21 
0.174
 0 
LINE
 8 
0
 62 
 7 
 10 
0.733
 20 
0.174
 11 
0.714
 21 
0.174
 0 
LINE
 8 
0
 62 
 7 
 10 
0.025
 20 
0.352
 11 
0.025
 21 
0.325
 0 
LINE
 8 
0
 62 
 7 
 10 
0.025
 20 
0.325
 11 
0.065
 21 
0.325
 0 
LINE
 8 
0
 62 
 7 
 10 
0.045
 20 
0.325
 11 
0.045
 21 
0.345
 0 
LINE
 8 
0
 62 
 7 
 10 
0.025
 20 
0.365
 11 
0.025
 21 
0.392
 0 
LINE
 8 
0
 62 
 7 
 10 
0.025
 20 
0.378
 11 
0.065
 21 
0.378
 0 
LINE
 8 
0
 62 
 7 
 10 
0.025
 20 
0.405
 11 
0.025
 21 
0.425
 0 
LINE
 8 
0
 62 
 7 
 10 
0.025
 20 
0.425
 11 
0.032
 21 
0.432
 0 
LINE
 8 
0
 62 
 7 
 10 
0.032
 20 
0.432
 11 
0.058
 21 
0.432
 0 
LINE
 8 
0
 62 
 7 
 10 
0.058
 20 
0.432
 11 
0.065
 21 
0.425
 0 
LINE
 8 
0
 62 
 7 
 10 
0.065
 20 
0.425
 11 
0.065
 21 
0.405
 0 
LINE
 8 
0
 62 
 7 
 10 
0.025
 20 
0.412
 11 
0.065
 21 
0.412
 0 
LINE
 8 
0
 62 
 7 
 10 
0.025
 20 
0.452
 11 
0.025
 21 
0.465
 0 
LINE
 8 
0
 62 
 7 
 10 
0.065
 20 
0.452
 11 
0.065
 21 
0.465
 0 
LINE
 8 
0
 62 
 7 
 10 
0.025
 20 
0.458
 11 
0.065
 21 
0.458
 0 
LINE
 8 
0
 62 
 7 
 10 
1.475
 20 
0.7
 11 
1.475
 21 
0.662
 0 
LINE
 8 
0
 62 
 7 
 10 
1.475
 20 
0.662
 11 
1.488
 21 
0.675
 0 
LINE
 8 
0
 62 
 7 
 10 
1.488
 20 
0.675
 11 
1.5
 21 
0.662
 0 
LINE
 8 
0
 62 
 7 
 10 
1.5
 20 
0.662
 11 
1.5
 21 
0.7
 0 
LINE
 8 
0
 62 
 7 
 10 
1.488
 20 
0.675
 11 
1.488
 21 
0.681
 0 
LINE
 8 
0
 62 
 7 
 10 
1.519
 20 
0.7
 11 
1.532
 21 
0.7
 0 
LINE
 8 
0
 62 
 7 
 10 
1.519
 20 
0.662
 11 
1.532
 21 
0.662
 0 
LINE
 8 
0
 62 
 7 
 10 
1.526
 20 
0.7
 11 
1.526
 21 
0.662
 0 
LINE
 8 
0
 62 
 7 
 10 
1.576
 20 
0.7
 11 
1.551
 21 
0.7
 0 
LINE
 8 
0
 62 
 7 
 10 
1.551
 20 
0.7
 11 
1.551
 21 
0.662
 0 
LINE
 8 
0
 62 
 7 
 10 
1.551
 20 
0.681
 11 
1.57
 21 
0.681
 0 
LINE
 8 
0
 62 
 7 
 10 
1.595
 20 
0.7
 11 
1.608
 21 
0.7
 0 
LINE
 8 
0
 62 
 7 
 10 
1.595
 20 
0.662
 11 
1.608
 21 
0.662
 0 
LINE
 8 
0
 62 
 7 
 10 
1.602
 20 
0.7
 11 
1.602
 21 
0.662
 0 
LINE
 8 
0
 62 
 7 
 10 
1.633
 20 
0.694
 11 
1.64
 21 
0.7
 0 
LINE
 8 
0
 62 
 7 
 10 
1.64
 20 
0.7
 11 
1.64
 21 
0.662
 0 
LINE
 8 
0
 62 
 7 
 10 
1.633
 20 
0.662
 11 
1.646
 21 
0.662
 0 
LINE
 8 
0
 62 
 7 
 10 
0.097
 20 
0.128
 11 
0.153
 21 
0.128
 0 
LINE
 8 
0
 62 
 7 
 10 
0.153
 20 
0.128
 11 
0.153
 21 
0.072
 0 
LINE
 8 
0
 62 
 7 
 10 
0.153
 20 
0.072
 11 
0.097
 21 
0.072
 0 
LINE
 8 
0
 62 
 7 
 10 
0.097
 20 
0.072
 11 
0.097
 21 
0.128
 0 
CIRCLE
 8 
0
 62 
 7 
 10 
0.125
 20 
0.1
 40 
0.014
 0 
CIRCLE
 8 
0
 62 
 7 
 10 
0.125
 20 
0.2
 40 
0.028
 0 
CIRCLE
 8 
0
 62 
 7 
 10 
0.125
 20 
0.2
 40 
0.014
 0 
CIRCLE
 8 
0
 62 
 7 
 10 
0.125
 20 
0.3
 40 
0.028
 0 
CIRCLE
 8 
0
 62 
 7 
 10 
0.125
 20 
0.3
 40 
0.014
 0 
CIRCLE
 8 
0
 62 
 7 
 10 
0.125
 20 
0.4
 40 
0.028
 0 
CIRCLE
 8 
0
 62 
 7 
 10 
0.125
 20 
0.4
 40 
0.014
 0 
CIRCLE
 8 
0
 62 
 7 
 10 
0.125
 20 
0.5
 40 
0.028
 0 
CIRCLE
 8 
0
 62 
 7 
 10 
0.125
 20 
0.5
 40 
0.014
 0 
CIRCLE
 8 
0
 62 
 7 
 10 
0.125
 20 
0.6
 40 
0.028
 0 
CIRCLE
 8 
0
 62 
 7 
 10 
0.125
 20 
0.6
 40 
0.014
 0 
LINE
 8 
0
 62 
 7 
 10 
0.175
 20 
0.05
 11 
0.075
 21 
0.05
 0 
LINE
 8 
0
 62 
 7 
 10 
0.075
 20 
0.65
 11 
0.075
 21 
0.05
 0 
LINE
 8 
0
 62 
 7 
 10 
0.075
 20 
0.65
 11 
0.175
 21 
0.65
 0 
LINE
 8 
0
 62 
 7 
 10 
0.175
 20 
0.05
 11 
0.175
 21 
0.65
 0 
LINE
 8 
0
 62 
 7 
 10 
0.175
 20 
0.15
 11 
0.075
 21 
0.15
 0 
LINE
 8 
0
 62 
 7 
 10 
0.106
 20 
0.7
 11 
0.125
 21 
0.7
 0 
LINE
 8 
0
 62 
 7 
 10 
0.125
 20 
0.7
 11 
0.125
 21 
0.668
 0 
LINE
 8 
0
 62 
 7 
 10 
0.125
 20 
0.668
 11 
0.119
 21 
0.662
 0 
LINE
 8 
0
 62 
 7 
 10 
0.119
 20 
0.662
 11 
0.106
 21 
0.662
 0 
LINE
 8 
0
 62 
 7 
 10 
0.106
 20 
0.662
 11 
0.1
 21 
0.668
 0 
LINE
 8 
0
 62 
 7 
 10 
0.144
 20 
0.694
 11 
0.151
 21 
0.7
 0 
LINE
 8 
0
 62 
 7 
 10 
0.151
 20 
0.7
 11 
0.151
 21 
0.662
 0 
LINE
 8 
0
 62 
 7 
 10 
0.144
 20 
0.662
 11 
0.157
 21 
0.662
 0 
LINE
 8 
0
 62 
 7 
 10 
0.875
 20 
0.27
 11 
0.925
 21 
0.27
 0 
LINE
 8 
0
 62 
 7 
 10 
0.925
 20 
0.27
 11 
0.925
 21 
0.23
 0 
LINE
 8 
0
 62 
 7 
 10 
0.925
 20 
0.23
 11 
0.875
 21 
0.23
 0 
LINE
 8 
0
 62 
 7 
 10 
0.875
 20 
0.23
 11 
0.875
 21 
0.27
 0 
LINE
 8 
0
 62 
 7 
 10 
0.875
 20 
0.346
 11 
0.925
 21 
0.346
 0 
LINE
 8 
0
 62 
 7 
 10 
0.925
 20 
0.346
 11 
0.925
 21 
0.306
 0 
LINE
 8 
0
 62 
 7 
 10 
0.925
 20 
0.306
 11 
0.875
 21 
0.306
 0 
LINE
 8 
0
 62 
 7 
 10 
0.875
 20 
0.306
 11 
0.875
 21 
0.346
 0 
LINE
 8 
0
 62 
 7 
 10 
0.855
 20 
0.268
 11 
0.855
 21 
0.21
 0 
LINE
 8 
0
 62 
 7 
 10 
0.855
 20 
0.21
 11 
0.945
 21 
0.21
 0 
LINE
 8 
0
 62 
 7 
 10 
0.945
 20 
0.21
 11 
0.945
 21 
0.268
 0 
LINE
 8 
0
 62 
 7 
 10 
0.855
 20 
0.308
 11 
0.855
 21 
0.366
 0 
LINE
 8 
0
 62 
 7 
 10 
0.855
 20 
0.366
 11 
0.945
 21 
0.366
 0 
LINE
 8 
0
 62 
 7 
 10 
0.945
 20 
0.366
 11 
0.945
 21 
0.308
 0 
LINE
 8 
0
 62 
 7 
 10 
0.875
 20 
0.137
 11 
0.875
 21 
0.175
 0 
LINE
 8 
0
 62 
 7 
 10 
0.875
 20 
0.175
 11 
0.894
 21 
0.175
 0 
LINE
 8 
0
 62 
 7 
 10 
0.894
 20 
0.175
 11 
0.9
 21 
0.169
 0 
LINE
 8 
0
 62 
 7 
 10 
0.9
 20 
0.169
 11 
0.9
 21 
0.162
 0 
LINE
 8 
0
 62 
 7 
 10 
0.9
 20 
0.162
 11 
0.894
 21 
0.156
 0 
LINE
 8 
0
 62 
 7 
 10 
0.894
 20 
0.156
 11 
0.875
 21 
0.156
 0 
LINE
 8 
0
 62 
 7 
 10 
0.881
 20 
0.156
 11 
0.9
 21 
0.137
 0 
LINE
 8 
0
 62 
 7 
 10 
0.919
 20 
0.169
 11 
0.926
 21 
0.175
 0 
LINE
 8 
0
 62 
 7 
 10 
0.926
 20 
0.175
 11 
0.926
 21 
0.137
 0 
LINE
 8 
0
 62 
 7 
 10 
0.919
 20 
0.137
 11 
0.932
 21 
0.137
 0 
LINE
 8 
0
 62 
 7 
 10 
1.0
 20 
0.345
 11 
1.05
 21 
0.345
 0 
LINE
 8 
0
 62 
 7 
 10 
1.05
 20 
0.345
 11 
1.05
 21 
0.305
 0 
LINE
 8 
0
 62 
 7 
 10 
1.05
 20 
0.305
 11 
1.0
 21 
0.305
 0 
LINE
 8 
0
 62 
 7 
 10 
1.0
 20 
0.305
 11 
1.0
 21 
0.345
 0 
LINE
 8 
0
 62 
 7 
 10 
1.0
 20 
0.269
 11 
1.05
 21 
0.269
 0 
LINE
 8 
0
 62 
 7 
 10 
1.05
 20 
0.269
 11 
1.05
 21 
0.229
 0 
LINE
 8 
0
 62 
 7 
 10 
1.05
 20 
0.229
 11 
1.0
 21 
0.229
 0 
LINE
 8 
0
 62 
 7 
 10 
1.0
 20 
0.229
 11 
1.0
 21 
0.269
 0 
LINE
 8 
0
 62 
 7 
 10 
1.07
 20 
0.307
 11 
1.07
 21 
0.365
 0 
LINE
 8 
0
 62 
 7 
 10 
1.07
 20 
0.365
 11 
0.98
 21 
0.365
 0 
LINE
 8 
0
 62 
 7 
 10 
0.98
 20 
0.365
 11 
0.98
 21 
0.307
 0 
LINE
 8 
0
 62 
 7 
 10 
1.07
 20 
0.267
 11 
1.07
 21 
0.209
 0 
LINE
 8 
0
 62 
 7 
 10 
1.07
 20 
0.209
 11 
0.98
 21 
0.209
 0 
LINE
 8 
0
 62 
 7 
 10 
0.98
 20 
0.209
 11 
0.98
 21 
0.267
 0 
LINE
 8 
0
 62 
 7 
 10 
1.0
 20 
0.137
 11 
1.0
 21 
0.175
 0 
LINE
 8 
0
 62 
 7 
 10 
1.0
 20 
0.175
 11 
1.019
 21 
0.175
 0 
LINE
 8 
0
 62 
 7 
 10 
1.019
 20 
0.175
 11 
1.025
 21 
0.169
 0 
LINE
 8 
0
 62 
 7 
 10 
1.025
 20 
0.169
 11 
1.025
 21 
0.162
 0 
LINE
 8 
0
 62 
 7 
 10 
1.025
 20 
0.162
 11 
1.019
 21 
0.156
 0 
LINE
 8 
0
 62 
 7 
 10 
1.019
 20 
0.156
 11 
1.0
 21 
0.156
 0 
LINE
 8 
0
 62 
 7 
 10 
1.006
 20 
0.156
 11 
1.025
 21 
0.137
 0 
LINE
 8 
0
 62 
 7 
 10 
1.038
 20 
0.169
 11 
1.044
 21 
0.175
 0 
LINE
 8 
0
 62 
 7 
 10 
1.044
 20 
0.175
 11 
1.057
 21 
0.175
 0 
LINE
 8 
0
 62 
 7 
 10 
1.057
 20 
0.175
 11 
1.063
 21 
0.169
 0 
LINE
 8 
0
 62 
 7 
 10 
1.063
 20 
0.169
 11 
1.063
 21 
0.162
 0 
LINE
 8 
0
 62 
 7 
 10 
1.063
 20 
0.162
 11 
1.057
 21 
0.156
 0 
LINE
 8 
0
 62 
 7 
 10 
1.057
 20 
0.156
 11 
1.044
 21 
0.156
 0 
LINE
 8 
0
 62 
 7 
 10 
1.044
 20 
0.156
 11 
1.038
 21 
0.15
 0 
LINE
 8 
0
 62 
 7 
 10 
1.038
 20 
0.15
 11 
1.038
 21 
0.137
 0 
LINE
 8 
0
 62 
 7 
 10 
1.038
 20 
0.137
 11 
1.063
 21 
0.137
 0 
LINE
 8 
0
 62 
 7 
 10 
1.492
 20 
0.582
 11 
1.557
 21 
0.582
 0 
LINE
 8 
0
 62 
 7 
 10 
1.557
 20 
0.582
 11 
1.557
 21 
0.517
 0 
LINE
 8 
0
 62 
 7 
 10 
1.557
 20 
0.517
 11 
1.492
 21 
0.517
 0 
LINE
 8 
0
 62 
 7 
 10 
1.492
 20 
0.517
 11 
1.492
 21 
0.582
 0 
CIRCLE
 8 
0
 62 
 7 
 10 
1.525
 20 
0.55
 40 
0.018
 0 
CIRCLE
 8 
0
 62 
 7 
 10 
1.625
 20 
0.55
 40 
0.032
 0 
CIRCLE
 8 
0
 62 
 7 
 10 
1.625
 20 
0.55
 40 
0.018
 0 
CIRCLE
 8 
0
 62 
 7 
 10 
1.525
 20 
0.45
 40 
0.032
 0 
CIRCLE
 8 
0
 62 
 7 
 10 
1.525
 20 
0.45
 40 
0.018
 0 
CIRCLE
 8 
0
 62 
 7 
 10 
1.625
 20 
0.45
 40 
0.032
 0 
CIRCLE
 8 
0
 62 
 7 
 10 
1.625
 20 
0.45
 40 
0.018
 0 
CIRCLE
 8 
0
 62 
 7 
 10 
1.525
 20 
0.35
 40 
0.032
 0 
CIRCLE
 8 
0
 62 
 7 
 10 
1.525
 20 
0.35
 40 
0.018
 0 
CIRCLE
 8 
0
 62 
 7 
 10 
1.625
 20 
0.35
 40 
0.032
 0 
CIRCLE
 8 
0
 62 
 7 
 10 
1.625
 20 
0.35
 40 
0.018
 0 
CIRCLE
 8 
0
 62 
 7 
 10 
1.525
 20 
0.25
 40 
0.032
 0 
CIRCLE
 8 
0
 62 
 7 
 10 
1.525
 20 
0.25
 40 
0.018
 0 
CIRCLE
 8 
0
 62 
 7 
 10 
1.625
 20 
0.25
 40 
0.032
 0 
CIRCLE
 8 
0
 62 
 7 
 10 
1.625
 20 
0.25
 40 
0.018
 0 
LINE
 8 
0
 62 
 7 
 10 
1.425
 20 
0.65
 11 
1.725
 21 
0.65
 0 
LINE
 8 
0
 62 
 7 
 10 
1.725
 20 
0.15
 11 
1.725
 21 
0.65
 0 
LINE
 8 
0
 62 
 7 
 10 
1.725
 20 
0.15
 11 
1.425
 21 
0.15
 0 
LINE
 8 
0
 62 
 7 
 10 
1.425
 20 
0.65
 11 
1.425
 21 
0.15
 0 
LINE
 8 
0
 62 
 7 
 10 
1.25
 20 
0.27
 11 
1.3
 21 
0.27
 0 
LINE
 8 
0
 62 
 7 
 10 
1.3
 20 
0.27
 11 
1.3
 21 
0.23
 0 
LINE
 8 
0
 62 
 7 
 10 
1.3
 20 
0.23
 11 
1.25
 21 
0.23
 0 
LINE
 8 
0
 62 
 7 
 10 
1.25
 20 
0.23
 11 
1.25
 21 
0.27
 0 
LINE
 8 
0
 62 
 7 
 10 
1.427
 20 
0.125
 11 
1.4
 21 
0.125
 0 
LINE
 8 
0
 62 
 7 
 10 
1.4
 20 
0.125
 11 
1.4
 21 
0.085
 0 
LINE
 8 
0
 62 
 7 
 10 
1.4
 20 
0.085
 11 
1.427
 21 
0.085
 0 
LINE
 8 
0
 62 
 7 
 10 
1.4
 20 
0.105
 11 
1.42
 21 
0.105
 0 
LINE
 8 
0
 62 
 7 
 10 
1.467
 20 
0.118
 11 
1.46
 21 
0.125
 0 
LINE
 8 
0
 62 
 7 
 10 
1.46
 20 
0.125
 11 
1.447
 21 
0.125
 0 
LINE
 8 
0
 62 
 7 
 10 
1.447
 20 
0.125
 11 
1.44
 21 
0.118
 0 
LINE
 8 
0
 62 
 7 
 10 
1.44
 20 
0.118
 11 
1.44
 21 
0.112
 0 
LINE
 8 
0
 62 
 7 
 10 
1.44
 20 
0.112
 11 
1.447
 21 
0.105
 0 
LINE
 8 
0
 62 
 7 
 10 
1.447
 20 
0.105
 11 
1.46
 21 
0.105
 0 
LINE
 8 
0
 62 
 7 
 10 
1.46
 20 
0.105
 11 
1.467
 21 
0.098
 0 
LINE
 8 
0
 62 
 7 
 10 
1.467
 20 
0.098
 11 
1.467
 21 
0.092
 0 
LINE
 8 
0
 62 
 7 
 10 
1.467
 20 
0.092
 11 
1.46
 21 
0.085
 0 
LINE
 8 
0
 62 
 7 
 10 
1.46
 20 
0.085
 11 
1.447
 21 
0.085
 0 
LINE
 8 
0
 62 
 7 
 10 
1.447
 20 
0.085
 11 
1.44
 21 
0.092
 0 
LINE
 8 
0
 62 
 7 
 10 
1.48
 20 
0.085
 11 
1.48
 21 
0.125
 0 
LINE
 8 
0
 62 
 7 
 10 
1.48
 20 
0.125
 11 
1.5
 21 
0.125
 0 
LINE
 8 
0
 62 
 7 
 10 
1.5
 20 
0.125
 11 
1.507
 21 
0.118
 0 
LINE
 8 
0
 62 
 7 
 10 
1.507
 20 
0.118
 11 
1.507
 21 
0.112
 0 
LINE
 8 
0
 62 
 7 
 10 
1.507
 20 
0.112
 11 
1.5
 21 
0.105
 0 
LINE
 8 
0
 62 
 7 
 10 
1.5
 20 
0.105
 11 
1.48
 21 
0.105
 0 
LINE
 8 
0
 62 
 7 
 10 
1.527
 20 
0.105
 11 
1.52
 21 
0.112
 0 
LINE
 8 
0
 62 
 7 
 10 
1.52
 20 
0.112
 11 
1.52
 21 
0.118
 0 
LINE
 8 
0
 62 
 7 
 10 
1.52
 20 
0.118
 11 
1.527
 21 
0.125
 0 
LINE
 8 
0
 62 
 7 
 10 
1.527
 20 
0.125
 11 
1.54
 21 
0.125
 0 
LINE
 8 
0
 62 
 7 
 10 
1.54
 20 
0.125
 11 
1.547
 21 
0.118
 0 
LINE
 8 
0
 62 
 7 
 10 
1.547
 20 
0.118
 11 
1.547
 21 
0.112
 0 
LINE
 8 
0
 62 
 7 
 10 
1.547
 20 
0.112
 11 
1.54
 21 
0.105
 0 
LINE
 8 
0
 62 
 7 
 10 
1.54
 20 
0.105
 11 
1.527
 21 
0.105
 0 
LINE
 8 
0
 62 
 7 
 10 
1.527
 20 
0.105
 11 
1.52
 21 
0.098
 0 
LINE
 8 
0
 62 
 7 
 10 
1.52
 20 
0.098
 11 
1.52
 21 
0.092
 0 
LINE
 8 
0
 62 
 7 
 10 
1.52
 20 
0.092
 11 
1.527
 21 
0.085
 0 
LINE
 8 
0
 62 
 7 
 10 
1.527
 20 
0.085
 11 
1.54
 21 
0.085
 0 
LINE
 8 
0
 62 
 7 
 10 
1.54
 20 
0.085
 11 
1.547
 21 
0.092
 0 
LINE
 8 
0
 62 
 7 
 10 
1.547
 20 
0.092
 11 
1.547
 21 
0.098
 0 
LINE
 8 
0
 62 
 7 
 10 
1.547
 20 
0.098
 11 
1.54
 21 
0.105
 0 
LINE
 8 
0
 62 
 7 
 10 
1.56
 20 
0.118
 11 
1.567
 21 
0.125
 0 
LINE
 8 
0
 62 
 7 
 10 
1.567
 20 
0.125
 11 
1.58
 21 
0.125
 0 
LINE
 8 
0
 62 
 7 
 10 
1.58
 20 
0.125
 11 
1.587
 21 
0.118
 0 
LINE
 8 
0
 62 
 7 
 10 
1.587
 20 
0.118
 11 
1.587
 21 
0.112
 0 
LINE
 8 
0
 62 
 7 
 10 
1.587
 20 
0.112
 11 
1.58
 21 
0.105
 0 
LINE
 8 
0
 62 
 7 
 10 
1.58
 20 
0.105
 11 
1.567
 21 
0.105
 0 
LINE
 8 
0
 62 
 7 
 10 
1.567
 20 
0.105
 11 
1.56
 21 
0.098
 0 
LINE
 8 
0
 62 
 7 
 10 
1.56
 20 
0.098
 11 
1.56
 21 
0.085
 0 
LINE
 8 
0
 62 
 7 
 10 
1.56
 20 
0.085
 11 
1.587
 21 
0.085
 0 
LINE
 8 
0
 62 
 7 
 10 
1.62
 20 
0.125
 11 
1.613
 21 
0.125
 0 
LINE
 8 
0
 62 
 7 
 10 
1.613
 20 
0.125
 11 
1.6
 21 
0.112
 0 
LINE
 8 
0
 62 
 7 
 10 
1.6
 20 
0.112
 11 
1.6
 21 
0.092
 0 
LINE
 8 
0
 62 
 7 
 10 
1.6
 20 
0.092
 11 
1.607
 21 
0.085
 0 
LINE
 8 
0
 62 
 7 
 10 
1.607
 20 
0.085
 11 
1.62
 21 
0.085
 0 
LINE
 8 
0
 62 
 7 
 10 
1.62
 20 
0.085
 11 
1.627
 21 
0.092
 0 
LINE
 8 
0
 62 
 7 
 10 
1.627
 20 
0.092
 11 
1.627
 21 
0.098
 0 
LINE
 8 
0
 62 
 7 
 10 
1.627
 20 
0.098
 11 
1.62
 21 
0.105
 0 
LINE
 8 
0
 62 
 7 
 10 
1.62
 20 
0.105
 11 
1.607
 21 
0.105
 0 
LINE
 8 
0
 62 
 7 
 10 
1.607
 20 
0.105
 11 
1.6
 21 
0.098
 0 
LINE
 8 
0
 62 
 7 
 10 
1.66
 20 
0.125
 11 
1.653
 21 
0.125
 0 
LINE
 8 
0
 62 
 7 
 10 
1.653
 20 
0.125
 11 
1.64
 21 
0.112
 0 
LINE
 8 
0
 62 
 7 
 10 
1.64
 20 
0.112
 11 
1.64
 21 
0.092
 0 
LINE
 8 
0
 62 
 7 
 10 
1.64
 20 
0.092
 11 
1.647
 21 
0.085
 0 
LINE
 8 
0
 62 
 7 
 10 
1.647
 20 
0.085
 11 
1.66
 21 
0.085
 0 
LINE
 8 
0
 62 
 7 
 10 
1.66
 20 
0.085
 11 
1.667
 21 
0.092
 0 
LINE
 8 
0
 62 
 7 
 10 
1.667
 20 
0.092
 11 
1.667
 21 
0.098
 0 
LINE
 8 
0
 62 
 7 
 10 
1.667
 20 
0.098
 11 
1.66
 21 
0.105
 0 
LINE
 8 
0
 62 
 7 
 10 
1.66
 20 
0.105
 11 
1.647
 21 
0.105
 0 
LINE
 8 
0
 62 
 7 
 10 
1.647
 20 
0.105
 11 
1.64
 21 
0.098
 0 
LINE
 8 
0
 62 
 7 
 10 
1.68
 20 
0.105
 11 
1.707
 21 
0.105
 0 
LINE
 8 
0
 62 
 7 
 10 
1.727
 20 
0.118
 11 
1.733
 21 
0.125
 0 
LINE
 8 
0
 62 
 7 
 10 
1.733
 20 
0.125
 11 
1.733
 21 
0.085
 0 
LINE
 8 
0
 62 
 7 
 10 
1.727
 20 
0.085
 11 
1.74
 21 
0.085
 0 
LINE
 8 
0
 62 
 7 
 10 
0.377
 20 
0.7
 11 
0.35
 21 
0.7
 0 
LINE
 8 
0
 62 
 7 
 10 
0.35
 20 
0.7
 11 
0.35
 21 
0.66
 0 
LINE
 8 
0
 62 
 7 
 10 
0.35
 20 
0.66
 11 
0.377
 21 
0.66
 0 
LINE
 8 
0
 62 
 7 
 10 
0.35
 20 
0.68
 11 
0.37
 21 
0.68
 0 
LINE
 8 
0
 62 
 7 
 10 
0.417
 20 
0.693
 11 
0.41
 21 
0.7
 0 
LINE
 8 
0
 62 
 7 
 10 
0.41
 20 
0.7
 11 
0.397
 21 
0.7
 0 
LINE
 8 
0
 62 
 7 
 10 
0.397
 20 
0.7
 11 
0.39
 21 
0.693
 0 
LINE
 8 
0
 62 
 7 
 10 
0.39
 20 
0.693
 11 
0.39
 21 
0.687
 0 
LINE
 8 
0
 62 
 7 
 10 
0.39
 20 
0.687
 11 
0.397
 21 
0.68
 0 
LINE
 8 
0
 62 
 7 
 10 
0.397
 20 
0.68
 11 
0.41
 21 
0.68
 0 
LINE
 8 
0
 62 
 7 
 10 
0.41
 20 
0.68
 11 
0.417
 21 
0.673
 0 
LINE
 8 
0
 62 
 7 
 10 
0.417
 20 
0.673
 11 
0.417
 21 
0.667
 0 
LINE
 8 
0
 62 
 7 
 10 
0.417
 20 
0.667
 11 
0.41
 21 
0.66
 0 
LINE
 8 
0
 62 
 7 
 10 
0.41
 20 
0.66
 11 
0.397
 21 
0.66
 0 
LINE
 8 
0
 62 
 7 
 10 
0.397
 20 
0.66
 11 
0.39
 21 
0.667
 0 
LINE
 8 
0
 62 
 7 
 10 
0.43
 20 
0.66
 11 
0.43
 21 
0.7
 0 
LINE
 8 
0
 62 
 7 
 10 
0.43
 20 
0.7
 11 
0.45
 21 
0.7
 0 
LINE
 8 
0
 62 
 7 
 10 
0.45
 20 
0.7
 11 
0.457
 21 
0.693
 0 
LINE
 8 
0
 62 
 7 
 10 
0.457
 20 
0.693
 11 
0.457
 21 
0.687
 0 
LINE
 8 
0
 62 
 7 
 10 
0.457
 20 
0.687
 11 
0.45
 21 
0.68
 0 
LINE
 8 
0
 62 
 7 
 10 
0.45
 20 
0.68
 11 
0.43
 21 
0.68
 0 
LINE
 8 
0
 62 
 7 
 10 
0.477
 20 
0.68
 11 
0.47
 21 
0.687
 0 
LINE
 8 
0
 62 
 7 
 10 
0.47
 20 
0.687
 11 
0.47
 21 
0.693
 0 
LINE
 8 
0
 62 
 7 
 10 
0.47
 20 
0.693
 11 
0.477
 21 
0.7
 0 
LINE
 8 
0
 62 
 7 
 10 
0.477
 20 
0.7
 11 
0.49
 21 
0.7
 0 
LINE
 8 
0
 62 
 7 
 10 
0.49
 20 
0.7
 11 
0.497
 21 
0.693
 0 
LINE
 8 
0
 62 
 7 
 10 
0.497
 20 
0.693
 11 
0.497
 21 
0.687
 0 
LINE
 8 
0
 62 
 7 
 10 
0.497
 20 
0.687
 11 
0.49
 21 
0.68
 0 
LINE
 8 
0
 62 
 7 
 10 
0.49
 20 
0.68
 11 
0.477
 21 
0.68
 0 
LINE
 8 
0
 62 
 7 
 10 
0.477
 20 
0.68
 11 
0.47
 21 
0.673
 0 
LINE
 8 
0
 62 
 7 
 10 
0.47
 20 
0.673
 11 
0.47
 21 
0.667
 0 
LINE
 8 
0
 62 
 7 
 10 
0.47
 20 
0.667
 11 
0.477
 21 
0.66
 0 
LINE
 8 
0
 62 
 7 
 10 
0.477
 20 
0.66
 11 
0.49
 21 
0.66
 0 
LINE
 8 
0
 62 
 7 
 10 
0.49
 20 
0.66
 11 
0.497
 21 
0.667
 0 
LINE
 8 
0
 62 
 7 
 10 
0.497
 20 
0.667
 11 
0.497
 21 
0.673
 0 
LINE
 8 
0
 62 
 7 
 10 
0.497
 20 
0.673
 11 
0.49
 21 
0.68
 0 
LINE
 8 
0
 62 
 7 
 10 
0.51
 20 
0.693
 11 
0.517
 21 
0.7
 0 
LINE
 8 
0
 62 
 7 
 10 
0.517
 20 
0.7
 11 
0.53
 21 
0.7
 0 
LINE
 8 
0
 62 
 7 
 10 
0.53
 20 
0.7
 11 
0.537
 21 
0.693
 0 
LINE
 8 
0
 62 
 7 
 10 
0.537
 20 
0.693
 11 
0.537
 21 
0.687
 0 
LINE
 8 
0
 62 
 7 
 10 
0.537
 20 
0.687
 11 
0.53
 21 
0.68
 0 
LINE
 8 
0
 62 
 7 
 10 
0.53
 20 
0.68
 11 
0.517
 21 
0.68
 0 
LINE
 8 
0
 62 
 7 
 10 
0.517
 20 
0.68
 11 
0.51
 21 
0.673
 0 
LINE
 8 
0
 62 
 7 
 10 
0.51
 20 
0.673
 11 
0.51
 21 
0.66
 0 
LINE
 8 
0
 62 
 7 
 10 
0.51
 20 
0.66
 11 
0.537
 21 
0.66
 0 
LINE
 8 
0
 62 
 7 
 10 
0.57
 20 
0.7
 11 
0.563
 21 
0.7
 0 
LINE
 8 
0
 62 
 7 
 10 
0.563
 20 
0.7
 11 
0.55
 21 
0.687
 0 
LINE
 8 
0
 62 
 7 
 10 
0.55
 20 
0.687
 11 
0.55
 21 
0.667
 0 
LINE
 8 
0
 62 
 7 
 10 
0.55
 20 
0.667
 11 
0.557
 21 
0.66
 0 
LINE
 8 
0
 62 
 7 
 10 
0.557
 20 
0.66
 11 
0.57
 21 
0.66
 0 
LINE
 8 
0
 62 
 7 
 10 
0.57
 20 
0.66
 11 
0.577
 21 
0.667
 0 
LINE
 8 
0
 62 
 7 
 10 
0.577
 20 
0.667
 11 
0.577
 21 
0.673
 0 
LINE
 8 
0
 62 
 7 
 10 
0.577
 20 
0.673
 11 
0.57
 21 
0.68
 0 
LINE
 8 
0
 62 
 7 
 10 
0.57
 20 
0.68
 11 
0.557
 21 
0.68
 0 
LINE
 8 
0
 62 
 7 
 10 
0.557
 20 
0.68
 11 
0.55
 21 
0.673
 0 
LINE
 8 
0
 62 
 7 
 10 
0.61
 20 
0.7
 11 
0.603
 21 
0.7
 0 
LINE
 8 
0
 62 
 7 
 10 
0.603
 20 
0.7
 11 
0.59
 21 
0.687
 0 
LINE
 8 
0
 62 
 7 
 10 
0.59
 20 
0.687
 11 
0.59
 21 
0.667
 0 
LINE
 8 
0
 62 
 7 
 10 
0.59
 20 
0.667
 11 
0.597
 21 
0.66
 0 
LINE
 8 
0
 62 
 7 
 10 
0.597
 20 
0.66
 11 
0.61
 21 
0.66
 0 
LINE
 8 
0
 62 
 7 
 10 
0.61
 20 
0.66
 11 
0.617
 21 
0.667
 0 
LINE
 8 
0
 62 
 7 
 10 
0.617
 20 
0.667
 11 
0.617
 21 
0.673
 0 
LINE
 8 
0
 62 
 7 
 10 
0.617
 20 
0.673
 11 
0.61
 21 
0.68
 0 
LINE
 8 
0
 62 
 7 
 10 
0.61
 20 
0.68
 11 
0.597
 21 
0.68
 0 
LINE
 8 
0
 62 
 7 
 10 
0.597
 20 
0.68
 11 
0.59
 21 
0.673
 0 
LINE
 8 
0
 62 
 7 
 10 
0.63
 20 
0.68
 11 
0.657
 21 
0.68
 0 
LINE
 8 
0
 62 
 7 
 10 
0.677
 20 
0.693
 11 
0.683
 21 
0.7
 0 
LINE
 8 
0
 62 
 7 
 10 
0.683
 20 
0.7
 11 
0.683
 21 
0.66
 0 
LINE
 8 
0
 62 
 7 
 10 
0.677
 20 
0.66
 11 
0.69
 21 
0.66
 0 
LINE
 8 
0
 62 
 7 
 10 
1.25
 20 
0.346
 11 
1.3
 21 
0.346
 0 
LINE
 8 
0
 62 
 7 
 10 
1.3
 20 
0.346
 11 
1.3
 21 
0.306
 0 
LINE
 8 
0
 62 
 7 
 10 
1.3
 20 
0.306
 11 
1.25
 21 
0.306
 0 
LINE
 8 
0
 62 
 7 
 10 
1.25
 20 
0.306
 11 
1.25
 21 
0.346
 0 
LINE
 8 
0
 62 
 7 
 10 
1.23
 20 
0.268
 11 
1.23
 21 
0.21
 0 
LINE
 8 
0
 62 
 7 
 10 
1.23
 20 
0.21
 11 
1.32
 21 
0.21
 0 
LINE
 8 
0
 62 
 7 
 10 
1.32
 20 
0.21
 11 
1.32
 21 
0.268
 0 
LINE
 8 
0
 62 
 7 
 10 
1.23
 20 
0.308
 11 
1.23
 21 
0.366
 0 
LINE
 8 
0
 62 
 7 
 10 
1.23
 20 
0.366
 11 
1.32
 21 
0.366
 0 
LINE
 8 
0
 62 
 7 
 10 
1.32
 20 
0.366
 11 
1.32
 21 
0.308
 0 
LINE
 8 
0
 62 
 7 
 10 
1.275
 20 
0.169
 11 
1.269
 21 
0.175
 0 
LINE
 8 
0
 62 
 7 
 10 
1.269
 20 
0.175
 11 
1.256
 21 
0.175
 0 
LINE
 8 
0
 62 
 7 
 10 
1.256
 20 
0.175
 11 
1.25
 21 
0.169
 0 
LINE
 8 
0
 62 
 7 
 10 
1.25
 20 
0.169
 11 
1.25
 21 
0.143
 0 
LINE
 8 
0
 62 
 7 
 10 
1.25
 20 
0.143
 11 
1.256
 21 
0.137
 0 
LINE
 8 
0
 62 
 7 
 10 
1.256
 20 
0.137
 11 
1.269
 21 
0.137
 0 
LINE
 8 
0
 62 
 7 
 10 
1.269
 20 
0.137
 11 
1.275
 21 
0.143
 0 
LINE
 8 
0
 62 
 7 
 10 
1.288
 20 
0.169
 11 
1.294
 21 
0.175
 0 
LINE
 8 
0
 62 
 7 
 10 
1.294
 20 
0.175
 11 
1.307
 21 
0.175
 0 
LINE
 8 
0
 62 
 7 
 10 
1.307
 20 
0.175
 11 
1.313
 21 
0.169
 0 
LINE
 8 
0
 62 
 7 
 10 
1.313
 20 
0.169
 11 
1.313
 21 
0.162
 0 
LINE
 8 
0
 62 
 7 
 10 
1.313
 20 
0.162
 11 
1.307
 21 
0.156
 0 
LINE
 8 
0
 62 
 7 
 10 
1.307
 20 
0.156
 11 
1.294
 21 
0.156
 0 
LINE
 8 
0
 62 
 7 
 10 
1.294
 20 
0.156
 11 
1.288
 21 
0.15
 0 
LINE
 8 
0
 62 
 7 
 10 
1.288
 20 
0.15
 11 
1.288
 21 
0.137
 0 
LINE
 8 
0
 62 
 7 
 10 
1.288
 20 
0.137
 11 
1.313
 21 
0.137
 0 
LINE
 8 
0
 62 
 7 
 10 
1.125
 20 
0.27
 11 
1.175
 21 
0.27
 0 
LINE
 8 
0
 62 
 7 
 10 
1.175
 20 
0.27
 11 
1.175
 21 
0.23
 0 
LINE
 8 
0
 62 
 7 
 10 
1.175
 20 
0.23
 11 
1.125
 21 
0.23
 0 
LINE
 8 
0
 62 
 7 
 10 
1.125
 20 
0.23
 11 
1.125
 21 
0.27
 0 
LINE
 8 
0
 62 
 7 
 10 
1.125
 20 
0.346
 11 
1.175
 21 
0.346
 0 
LINE
 8 
0
 62 
 7 
 10 
1.175
 20 
0.346
 11 
1.175
 21 
0.306
 0 
LINE
 8 
0
 62 
 7 
 10 
1.175
 20 
0.306
 11 
1.125
 21 
0.306
 0 
LINE
 8 
0
 62 
 7 
 10 
1.125
 20 
0.306
 11 
1.125
 21 
0.346
 0 
LINE
 8 
0
 62 
 7 
 10 
1.105
 20 
0.268
 11 
1.105
 21 
0.21
 0 
LINE
 8 
0
 62 
 7 
 10 
1.105
 20 
0.21
 11 
1.195
 21 
0.21
 0 
LINE
 8 
0
 62 
 7 
 10 
1.195
 20 
0.21
 11 
1.195
 21 
0.268
 0 
LINE
 8 
0
 62 
 7 
 10 
1.105
 20 
0.308
 11 
1.105
 21 
0.366
 0 
LINE
 8 
0
 62 
 7 
 10 
1.105
 20 
0.366
 11 
1.195
 21 
0.366
 0 
LINE
 8 
0
 62 
 7 
 10 
1.195
 20 
0.366
 11 
1.195
 21 
0.308
 0 
LINE
 8 
0
 62 
 7 
 10 
1.15
 20 
0.169
 11 
1.144
 21 
0.175
 0 
LINE
 8 
0
 62 
 7 
 10 
1.144
 20 
0.175
 11 
1.131
 21 
0.175
 0 
LINE
 8 
0
 62 
 7 
 10 
1.131
 20 
0.175
 11 
1.125
 21 
0.169
 0 
LINE
 8 
0
 62 
 7 
 10 
1.125
 20 
0.169
 11 
1.125
 21 
0.143
 0 
LINE
 8 
0
 62 
 7 
 10 
1.125
 20 
0.143
 11 
1.131
 21 
0.137
 0 
LINE
 8 
0
 62 
 7 
 10 
1.131
 20 
0.137
 11 
1.144
 21 
0.137
 0 
LINE
 8 
0
 62 
 7 
 10 
1.144
 20 
0.137
 11 
1.15
 21 
0.143
 0 
LINE
 8 
0
 62 
 7 
 10 
1.169
 20 
0.169
 11 
1.176
 21 
0.175
 0 
LINE
 8 
0
 62 
 7 
 10 
1.176
 20 
0.175
 11 
1.176
 21 
0.137
 0 
LINE
 8 
0
 62 
 7 
 10 
1.169
 20 
0.137
 11 
1.182
 21 
0.137
 0 
LINE
 8 
0
 62 
 7 
 10 
0.225
 20 
0.119
 11 
0.219
 21 
0.125
 0 
LINE
 8 
0
 62 
 7 
 10 
0.219
 20 
0.125
 11 
0.206
 21 
0.125
 0 
LINE
 8 
0
 62 
 7 
 10 
0.206
 20 
0.125
 11 
0.2
 21 
0.119
 0 
LINE
 8 
0
 62 
 7 
 10 
0.2
 20 
0.119
 11 
0.2
 21 
0.093
 0 
LINE
 8 
0
 62 
 7 
 10 
0.2
 20 
0.093
 11 
0.206
 21 
0.087
 0 
LINE
 8 
0
 62 
 7 
 10 
0.206
 20 
0.087
 11 
0.225
 21 
0.087
 0 
LINE
 8 
0
 62 
 7 
 10 
0.225
 20 
0.087
 11 
0.225
 21 
0.1
 0 
LINE
 8 
0
 62 
 7 
 10 
0.225
 20 
0.1
 11 
0.219
 21 
0.1
 0 
LINE
 8 
0
 62 
 7 
 10 
0.238
 20 
0.087
 11 
0.238
 21 
0.125
 0 
LINE
 8 
0
 62 
 7 
 10 
0.238
 20 
0.125
 11 
0.263
 21 
0.1
 0 
LINE
 8 
0
 62 
 7 
 10 
0.263
 20 
0.125
 11 
0.263
 21 
0.087
 0 
LINE
 8 
0
 62 
 7 
 10 
0.276
 20 
0.125
 11 
0.295
 21 
0.125
 0 
LINE
 8 
0
 62 
 7 
 10 
0.295
 20 
0.125
 11 
0.301
 21 
0.119
 0 
LINE
 8 
0
 62 
 7 
 10 
0.301
 20 
0.119
 11 
0.301
 21 
0.093
 0 
LINE
 8 
0
 62 
 7 
 10 
0.301
 20 
0.093
 11 
0.295
 21 
0.087
 0 
LINE
 8 
0
 62 
 7 
 10 
0.295
 20 
0.087
 11 
0.276
 21 
0.087
 0 
LINE
 8 
0
 62 
 7 
 10 
0.282
 20 
0.125
 11 
0.282
 21 
0.087
 0 
LINE
 8 
0
 62 
 7 
 10 
0.2
 20 
0.325
 11 
0.2
 21 
0.306
 0 
LINE
 8 
0
 62 
 7 
 10 
0.2
 20 
0.306
 11 
0.213
 21 
0.293
 0 
LINE
 8 
0
 62 
 7 
 10 
0.213
 20 
0.293
 11 
0.225
 21 
0.306
 0 
LINE
 8 
0
 62 
 7 
 10 
0.225
 20 
0.306
 11 
0.225
 21 
0.325
 0 
LINE
 8 
0
 62 
 7 
 10 
0.213
 20 
0.293
 11 
0.213
 21 
0.287
 0 
LINE
 8 
0
 62 
 7 
 10 
0.263
 20 
0.319
 11 
0.257
 21 
0.325
 0 
LINE
 8 
0
 62 
 7 
 10 
0.257
 20 
0.325
 11 
0.244
 21 
0.325
 0 
LINE
 8 
0
 62 
 7 
 10 
0.244
 20 
0.325
 11 
0.238
 21 
0.319
 0 
LINE
 8 
0
 62 
 7 
 10 
0.238
 20 
0.319
 11 
0.238
 21 
0.293
 0 
LINE
 8 
0
 62 
 7 
 10 
0.238
 20 
0.293
 11 
0.244
 21 
0.287
 0 
LINE
 8 
0
 62 
 7 
 10 
0.244
 20 
0.287
 11 
0.257
 21 
0.287
 0 
LINE
 8 
0
 62 
 7 
 10 
0.257
 20 
0.287
 11 
0.263
 21 
0.293
 0 
LINE
 8 
0
 62 
 7 
 10 
0.301
 20 
0.319
 11 
0.295
 21 
0.325
 0 
LINE
 8 
0
 62 
 7 
 10 
0.295
 20 
0.325
 11 
0.282
 21 
0.325
 0 
LINE
 8 
0
 62 
 7 
 10 
0.282
 20 
0.325
 11 
0.276
 21 
0.319
 0 
LINE
 8 
0
 62 
 7 
 10 
0.276
 20 
0.319
 11 
0.276
 21 
0.293
 0 
LINE
 8 
0
 62 
 7 
 10 
0.276
 20 
0.293
 11 
0.282
 21 
0.287
 0 
LINE
 8 
0
 62 
 7 
 10 
0.282
 20 
0.287
 11 
0.295
 21 
0.287
 0 
LINE
 8 
0
 62 
 7 
 10 
0.295
 20 
0.287
 11 
0.301
 21 
0.293
 0 
LINE
 8 
0
 62 
 7 
 10 
0.752
 20 
0.7
 11 
0.725
 21 
0.7
 0 
LINE
 8 
0
 62 
 7 
 10 
0.725
 20 
0.7
 11 
0.725
 21 
0.66
 0 
LINE
 8 
0
 62 
 7 
 10 
0.725
 20 
0.68
 11 
0.745
 21 
0.68
 0 
LINE
 8 
0
 62 
 7 
 10 
0.772
 20 
0.7
 11 
0.778
 21 
0.7
 0 
LINE
 8 
0
 62 
 7 
 10 
0.778
 20 
0.7
 11 
0.778
 21 
0.66
 0 
LINE
 8 
0
 62 
 7 
 10 
0.772
 20 
0.66
 11 
0.785
 21 
0.66
 0 
LINE
 8 
0
 62 
 7 
 10 
0.812
 20 
0.687
 11 
0.825
 21 
0.687
 0 
LINE
 8 
0
 62 
 7 
 10 
0.825
 20 
0.687
 11 
0.832
 21 
0.68
 0 
LINE
 8 
0
 62 
 7 
 10 
0.832
 20 
0.68
 11 
0.832
 21 
0.66
 0 
LINE
 8 
0
 62 
 7 
 10 
0.832
 20 
0.673
 11 
0.812
 21 
0.673
 0 
LINE
 8 
0
 62 
 7 
 10 
0.812
 20 
0.673
 11 
0.805
 21 
0.667
 0 
LINE
 8 
0
 62 
 7 
 10 
0.805
 20 
0.667
 11 
0.812
 21 
0.66
 0 
LINE
 8 
0
 62 
 7 
 10 
0.812
 20 
0.66
 11 
0.825
 21 
0.66
 0 
LINE
 8 
0
 62 
 7 
 10 
0.825
 20 
0.66
 11 
0.832
 21 
0.667
 0 
LINE
 8 
0
 62 
 7 
 10 
0.872
 20 
0.687
 11 
0.852
 21 
0.687
 0 
LINE
 8 
0
 62 
 7 
 10 
0.852
 20 
0.687
 11 
0.845
 21 
0.68
 0 
LINE
 8 
0
 62 
 7 
 10 
0.845
 20 
0.68
 11 
0.852
 21 
0.673
 0 
LINE
 8 
0
 62 
 7 
 10 
0.852
 20 
0.673
 11 
0.865
 21 
0.673
 0 
LINE
 8 
0
 62 
 7 
 10 
0.865
 20 
0.673
 11 
0.872
 21 
0.667
 0 
LINE
 8 
0
 62 
 7 
 10 
0.872
 20 
0.667
 11 
0.865
 21 
0.66
 0 
LINE
 8 
0
 62 
 7 
 10 
0.865
 20 
0.66
 11 
0.845
 21 
0.66
 0 
LINE
 8 
0
 62 
 7 
 10 
0.885
 20 
0.7
 11 
0.885
 21 
0.66
 0 
LINE
 8 
0
 62 
 7 
 10 
0.885
 20 
0.673
 11 
0.898
 21 
0.687
 0 
LINE
 8 
0
 62 
 7 
 10 
0.898
 20 
0.687
 11 
0.905
 21 
0.687
 0 
LINE
 8 
0
 62 
 7 
 10 
0.905
 20 
0.687
 11 
0.912
 21 
0.68
 0 
LINE
 8 
0
 62 
 7 
 10 
0.912
 20 
0.68
 11 
0.912
 21 
0.66
 0 
LINE
 8 
0
 62 
 7 
 10 
0.992
 20 
0.693
 11 
0.985
 21 
0.7
 0 
LINE
 8 
0
 62 
 7 
 10 
0.985
 20 
0.7
 11 
0.972
 21 
0.7
 0 
LINE
 8 
0
 62 
 7 
 10 
0.972
 20 
0.7
 11 
0.965
 21 
0.693
 0 
LINE
 8 
0
 62 
 7 
 10 
0.965
 20 
0.693
 11 
0.965
 21 
0.687
 0 
LINE
 8 
0
 62 
 7 
 10 
0.965
 20 
0.687
 11 
0.972
 21 
0.68
 0 
LINE
 8 
0
 62 
 7 
 10 
0.972
 20 
0.68
 11 
0.985
 21 
0.68
 0 
LINE
 8 
0
 62 
 7 
 10 
0.985
 20 
0.68
 11 
0.992
 21 
0.673
 0 
LINE
 8 
0
 62 
 7 
 10 
0.992
 20 
0.673
 11 
0.992
 21 
0.667
 0 
LINE
 8 
0
 62 
 7 
 10 
0.992
 20 
0.667
 11 
0.985
 21 
0.66
 0 
LINE
 8 
0
 62 
 7 
 10 
0.985
 20 
0.66
 11 
0.972
 21 
0.66
 0 
LINE
 8 
0
 62 
 7 
 10 
0.972
 20 
0.66
 11 
0.965
 21 
0.667
 0 
LINE
 8 
0
 62 
 7 
 10 
1.012
 20 
0.7
 11 
1.012
 21 
0.667
 0 
LINE
 8 
0
 62 
 7 
 10 
1.012
 20 
0.667
 11 
1.018
 21 
0.66
 0 
LINE
 8 
0
 62 
 7 
 10 
1.018
 20 
0.66
 11 
1.025
 21 
0.66
 0 
LINE
 8 
0
 62 
 7 
 10 
1.025
 20 
0.66
 11 
1.032
 21 
0.667
 0 
LINE
 8 
0
 62 
 7 
 10 
1.005
 20 
0.687
 11 
1.025
 21 
0.687
 0 
LINE
 8 
0
 62 
 7 
 10 
1.058
 20 
0.7
 11 
1.058
 21 
0.693
 0 
LINE
 8 
0
 62 
 7 
 10 
1.052
 20 
0.66
 11 
1.065
 21 
0.66
 0 
LINE
 8 
0
 62 
 7 
 10 
1.052
 20 
0.68
 11 
1.058
 21 
0.68
 0 
LINE
 8 
0
 62 
 7 
 10 
1.058
 20 
0.68
 11 
1.058
 21 
0.66
 0 
LINE
 8 
0
 62 
 7 
 10 
1.112
 20 
0.68
 11 
1.105
 21 
0.687
 0 
LINE
 8 
0
 62 
 7 
 10 
1.105
 20 
0.687
 11 
1.092
 21 
0.687
 0 
LINE
 8 
0
 62 
 7 
 10 
1.092
 20 
0.687
 11 
1.085
 21 
0.68
 0 
LINE
 8 
0
 62 
 7 
 10 
1.085
 20 
0.68
 11 
1.085
 21 
0.667
 0 
LINE
 8 
0
 62 
 7 
 10 
1.085
 20 
0.667
 11 
1.092
 21 
0.66
 0 
LINE
 8 
0
 62 
 7 
 10 
1.092
 20 
0.66
 11 
1.105
 21 
0.66
 0 
LINE
 8 
0
 62 
 7 
 10 
1.105
 20 
0.66
 11 
1.112
 21 
0.667
 0 
LINE
 8 
0
 62 
 7 
 10 
1.125
 20 
0.7
 11 
1.132
 21 
0.7
 0 
LINE
 8 
0
 62 
 7 
 10 
1.132
 20 
0.7
 11 
1.132
 21 
0.66
 0 
LINE
 8 
0
 62 
 7 
 10 
1.152
 20 
0.687
 11 
1.138
 21 
0.673
 0 
LINE
 8 
0
 62 
 7 
 10 
1.138
 20 
0.673
 11 
1.152
 21 
0.66
 0 
LINE
 8 
0
 62 
 7 
 10 
1.132
 20 
0.673
 11 
1.138
 21 
0.673
 0 
LINE
 8 
0
 62 
 7 
 10 
1.205
 20 
0.687
 11 
1.205
 21 
0.673
 0 
LINE
 8 
0
 62 
 7 
 10 
1.205
 20 
0.673
 11 
1.218
 21 
0.66
 0 
LINE
 8 
0
 62 
 7 
 10 
1.218
 20 
0.66
 11 
1.232
 21 
0.673
 0 
LINE
 8 
0
 62 
 7 
 10 
1.232
 20 
0.673
 11 
1.232
 21 
0.687
 0 
LINE
 8 
0
 62 
 7 
 10 
1.252
 20 
0.693
 11 
1.258
 21 
0.7
 0 
LINE
 8 
0
 62 
 7 
 10 
1.258
 20 
0.7
 11 
1.258
 21 
0.66
 0 
LINE
 8 
0
 62 
 7 
 10 
1.252
 20 
0.66
 11 
1.265
 21 
0.66
 0 
LINE
 8 
0
 62 
 7 
 10 
1.298
 20 
0.66
 11 
1.292
 21 
0.66
 0 
LINE
 8 
0
 62 
 7 
 10 
1.292
 20 
0.66
 11 
1.292
 21 
0.667
 0 
LINE
 8 
0
 62 
 7 
 10 
1.292
 20 
0.667
 11 
1.298
 21 
0.667
 0 
LINE
 8 
0
 62 
 7 
 10 
1.298
 20 
0.667
 11 
1.298
 21 
0.66
 0 
LINE
 8 
0
 62 
 7 
 10 
1.325
 20 
0.667
 11 
1.325
 21 
0.693
 0 
LINE
 8 
0
 62 
 7 
 10 
1.325
 20 
0.693
 11 
1.332
 21 
0.7
 0 
LINE
 8 
0
 62 
 7 
 10 
1.332
 20 
0.7
 11 
1.345
 21 
0.7
 0 
LINE
 8 
0
 62 
 7 
 10 
1.345
 20 
0.7
 11 
1.352
 21 
0.693
 0 
LINE
 8 
0
 62 
 7 
 10 
1.352
 20 
0.693
 11 
1.352
 21 
0.667
 0 
LINE
 8 
0
 62 
 7 
 10 
1.352
 20 
0.667
 11 
1.345
 21 
0.66
 0 
LINE
 8 
0
 62 
 7 
 10 
1.345
 20 
0.66
 11 
1.332
 21 
0.66
 0 
LINE
 8 
0
 62 
 7 
 10 
1.332
 20 
0.66
 11 
1.325
 21 
0.667
 0 
LINE
 8 
0
 62 
 7 
 10 
1.325
 20 
0.667
 11 
1.352
 21 
0.693
 0 
LINE
 8 
0
 62 
 7 
 10 
0.375
 20 
0.087
 11 
0.375
 21 
0.067
 0 
LINE
 8 
0
 62 
 7 
 10 
0.375
 20 
0.067
 11 
0.382
 21 
0.06
 0 
LINE
 8 
0
 62 
 7 
 10 
0.382
 20 
0.06
 11 
0.388
 21 
0.067
 0 
LINE
 8 
0
 62 
 7 
 10 
0.388
 20 
0.067
 11 
0.388
 21 
0.073
 0 
LINE
 8 
0
 62 
 7 
 10 
0.388
 20 
0.067
 11 
0.395
 21 
0.06
 0 
LINE
 8 
0
 62 
 7 
 10 
0.395
 20 
0.06
 11 
0.402
 21 
0.067
 0 
LINE
 8 
0
 62 
 7 
 10 
0.402
 20 
0.067
 11 
0.402
 21 
0.087
 0 
LINE
 8 
0
 62 
 7 
 10 
0.415
 20 
0.087
 11 
0.415
 21 
0.067
 0 
LINE
 8 
0
 62 
 7 
 10 
0.415
 20 
0.067
 11 
0.422
 21 
0.06
 0 
LINE
 8 
0
 62 
 7 
 10 
0.422
 20 
0.06
 11 
0.428
 21 
0.067
 0 
LINE
 8 
0
 62 
 7 
 10 
0.428
 20 
0.067
 11 
0.428
 21 
0.073
 0 
LINE
 8 
0
 62 
 7 
 10 
0.428
 20 
0.067
 11 
0.435
 21 
0.06
 0 
LINE
 8 
0
 62 
 7 
 10 
0.435
 20 
0.06
 11 
0.442
 21 
0.067
 0 
LINE
 8 
0
 62 
 7 
 10 
0.442
 20 
0.067
 11 
0.442
 21 
0.087
 0 
LINE
 8 
0
 62 
 7 
 10 
0.455
 20 
0.087
 11 
0.455
 21 
0.067
 0 
LINE
 8 
0
 62 
 7 
 10 
0.455
 20 
0.067
 11 
0.462
 21 
0.06
 0 
LINE
 8 
0
 62 
 7 
 10 
0.462
 20 
0.06
 11 
0.468
 21 
0.067
 0 
LINE
 8 
0
 62 
 7 
 10 
0.468
 20 
0.067
 11 
0.468
 21 
0.073
 0 
LINE
 8 
0
 62 
 7 
 10 
0.468
 20 
0.067
 11 
0.475
 21 
0.06
 0 
LINE
 8 
0
 62 
 7 
 10 
0.475
 20 
0.06
 11 
0.482
 21 
0.067
 0 
LINE
 8 
0
 62 
 7 
 10 
0.482
 20 
0.067
 11 
0.482
 21 
0.087
 0 
LINE
 8 
0
 62 
 7 
 10 
0.508
 20 
0.06
 11 
0.502
 21 
0.06
 0 
LINE
 8 
0
 62 
 7 
 10 
0.502
 20 
0.06
 11 
0.502
 21 
0.067
 0 
LINE
 8 
0
 62 
 7 
 10 
0.502
 20 
0.067
 11 
0.508
 21 
0.067
 0 
LINE
 8 
0
 62 
 7 
 10 
0.508
 20 
0.067
 11 
0.508
 21 
0.06
 0 
LINE
 8 
0
 62 
 7 
 10 
0.535
 20 
0.087
 11 
0.535
 21 
0.047
 0 
LINE
 8 
0
 62 
 7 
 10 
0.535
 20 
0.08
 11 
0.542
 21 
0.087
 0 
LINE
 8 
0
 62 
 7 
 10 
0.542
 20 
0.087
 11 
0.555
 21 
0.087
 0 
LINE
 8 
0
 62 
 7 
 10 
0.555
 20 
0.087
 11 
0.562
 21 
0.08
 0 
LINE
 8 
0
 62 
 7 
 10 
0.562
 20 
0.08
 11 
0.562
 21 
0.067
 0 
LINE
 8 
0
 62 
 7 
 10 
0.562
 20 
0.067
 11 
0.555
 21 
0.06
 0 
LINE
 8 
0
 62 
 7 
 10 
0.555
 20 
0.06
 11 
0.548
 21 
0.06
 0 
LINE
 8 
0
 62 
 7 
 10 
0.548
 20 
0.06
 11 
0.535
 21 
0.073
 0 
LINE
 8 
0
 62 
 7 
 10 
0.575
 20 
0.087
 11 
0.575
 21 
0.06
 0 
LINE
 8 
0
 62 
 7 
 10 
0.575
 20 
0.073
 11 
0.588
 21 
0.087
 0 
LINE
 8 
0
 62 
 7 
 10 
0.588
 20 
0.087
 11 
0.595
 21 
0.087
 0 
LINE
 8 
0
 62 
 7 
 10 
0.595
 20 
0.087
 11 
0.602
 21 
0.08
 0 
LINE
 8 
0
 62 
 7 
 10 
0.642
 20 
0.08
 11 
0.635
 21 
0.087
 0 
LINE
 8 
0
 62 
 7 
 10 
0.635
 20 
0.087
 11 
0.622
 21 
0.087
 0 
LINE
 8 
0
 62 
 7 
 10 
0.622
 20 
0.087
 11 
0.615
 21 
0.08
 0 
LINE
 8 
0
 62 
 7 
 10 
0.615
 20 
0.08
 11 
0.615
 21 
0.067
 0 
LINE
 8 
0
 62 
 7 
 10 
0.615
 20 
0.067
 11 
0.622
 21 
0.06
 0 
LINE
 8 
0
 62 
 7 
 10 
0.622
 20 
0.06
 11 
0.635
 21 
0.06
 0 
LINE
 8 
0
 62 
 7 
 10 
0.635
 20 
0.06
 11 
0.642
 21 
0.067
 0 
LINE
 8 
0
 62 
 7 
 10 
0.642
 20 
0.067
 11 
0.642
 21 
0.08
 0 
LINE
 8 
0
 62 
 7 
 10 
0.682
 20 
0.08
 11 
0.675
 21 
0.087
 0 
LINE
 8 
0
 62 
 7 
 10 
0.675
 20 
0.087
 11 
0.662
 21 
0.087
 0 
LINE
 8 
0
 62 
 7 
 10 
0.662
 20 
0.087
 11 
0.655
 21 
0.08
 0 
LINE
 8 
0
 62 
 7 
 10 
0.655
 20 
0.08
 11 
0.655
 21 
0.067
 0 
LINE
 8 
0
 62 
 7 
 10 
0.655
 20 
0.067
 11 
0.662
 21 
0.06
 0 
LINE
 8 
0
 62 
 7 
 10 
0.662
 20 
0.06
 11 
0.675
 21 
0.06
 0 
LINE
 8 
0
 62 
 7 
 10 
0.675
 20 
0.06
 11 
0.682
 21 
0.067
 0 
LINE
 8 
0
 62 
 7 
 10 
0.695
 20 
0.1
 11 
0.702
 21 
0.1
 0 
LINE
 8 
0
 62 
 7 
 10 
0.702
 20 
0.1
 11 
0.702
 21 
0.06
 0 
LINE
 8 
0
 62 
 7 
 10 
0.722
 20 
0.087
 11 
0.708
 21 
0.073
 0 
LINE
 8 
0
 62 
 7 
 10 
0.708
 20 
0.073
 11 
0.722
 21 
0.06
 0 
LINE
 8 
0
 62 
 7 
 10 
0.702
 20 
0.073
 11 
0.708
 21 
0.073
 0 
LINE
 8 
0
 62 
 7 
 10 
0.735
 20 
0.087
 11 
0.735
 21 
0.06
 0 
LINE
 8 
0
 62 
 7 
 10 
0.735
 20 
0.073
 11 
0.748
 21 
0.087
 0 
LINE
 8 
0
 62 
 7 
 10 
0.748
 20 
0.087
 11 
0.755
 21 
0.087
 0 
LINE
 8 
0
 62 
 7 
 10 
0.755
 20 
0.087
 11 
0.762
 21 
0.08
 0 
LINE
 8 
0
 62 
 7 
 10 
0.762
 20 
0.08
 11 
0.762
 21 
0.06
 0 
LINE
 8 
0
 62 
 7 
 10 
0.782
 20 
0.087
 11 
0.795
 21 
0.087
 0 
LINE
 8 
0
 62 
 7 
 10 
0.795
 20 
0.087
 11 
0.802
 21 
0.08
 0 
LINE
 8 
0
 62 
 7 
 10 
0.802
 20 
0.08
 11 
0.802
 21 
0.06
 0 
LINE
 8 
0
 62 
 7 
 10 
0.802
 20 
0.073
 11 
0.782
 21 
0.073
 0 
LINE
 8 
0
 62 
 7 
 10 
0.782
 20 
0.073
 11 
0.775
 21 
0.067
 0 
LINE
 8 
0
 62 
 7 
 10 
0.775
 20 
0.067
 11 
0.782
 21 
0.06
 0 
LINE
 8 
0
 62 
 7 
 10 
0.782
 20 
0.06
 11 
0.795
 21 
0.06
 0 
LINE
 8 
0
 62 
 7 
 10 
0.795
 20 
0.06
 11 
0.802
 21 
0.067
 0 
LINE
 8 
0
 62 
 7 
 10 
0.822
 20 
0.1
 11 
0.822
 21 
0.067
 0 
LINE
 8 
0
 62 
 7 
 10 
0.822
 20 
0.067
 11 
0.828
 21 
0.06
 0 
LINE
 8 
0
 62 
 7 
 10 
0.828
 20 
0.06
 11 
0.835
 21 
0.06
 0 
LINE
 8 
0
 62 
 7 
 10 
0.835
 20 
0.06
 11 
0.842
 21 
0.067
 0 
LINE
 8 
0
 62 
 7 
 10 
0.815
 20 
0.087
 11 
0.835
 21 
0.087
 0 
LINE
 8 
0
 62 
 7 
 10 
0.868
 20 
0.1
 11 
0.868
 21 
0.093
 0 
LINE
 8 
0
 62 
 7 
 10 
0.862
 20 
0.06
 11 
0.875
 21 
0.06
 0 
LINE
 8 
0
 62 
 7 
 10 
0.862
 20 
0.08
 11 
0.868
 21 
0.08
 0 
LINE
 8 
0
 62 
 7 
 10 
0.868
 20 
0.08
 11 
0.868
 21 
0.06
 0 
LINE
 8 
0
 62 
 7 
 10 
0.922
 20 
0.08
 11 
0.915
 21 
0.087
 0 
LINE
 8 
0
 62 
 7 
 10 
0.915
 20 
0.087
 11 
0.902
 21 
0.087
 0 
LINE
 8 
0
 62 
 7 
 10 
0.902
 20 
0.087
 11 
0.895
 21 
0.08
 0 
LINE
 8 
0
 62 
 7 
 10 
0.895
 20 
0.08
 11 
0.895
 21 
0.067
 0 
LINE
 8 
0
 62 
 7 
 10 
0.895
 20 
0.067
 11 
0.902
 21 
0.06
 0 
LINE
 8 
0
 62 
 7 
 10 
0.902
 20 
0.06
 11 
0.915
 21 
0.06
 0 
LINE
 8 
0
 62 
 7 
 10 
0.915
 20 
0.06
 11 
0.922
 21 
0.067
 0 
LINE
 8 
0
 62 
 7 
 10 
0.922
 20 
0.067
 11 
0.922
 21 
0.08
 0 
LINE
 8 
0
 62 
 7 
 10 
0.935
 20 
0.087
 11 
0.935
 21 
0.06
 0 
LINE
 8 
0
 62 
 7 
 10 
0.935
 20 
0.073
 11 
0.948
 21 
0.087
 0 
LINE
 8 
0
 62 
 7 
 10 
0.948
 20 
0.087
 11 
0.955
 21 
0.087
 0 
LINE
 8 
0
 62 
 7 
 10 
0.955
 20 
0.087
 11 
0.962
 21 
0.08
 0 
LINE
 8 
0
 62 
 7 
 10 
0.962
 20 
0.08
 11 
0.962
 21 
0.06
 0 
LINE
 8 
0
 62 
 7 
 10 
0.988
 20 
0.06
 11 
0.982
 21 
0.06
 0 
LINE
 8 
0
 62 
 7 
 10 
0.982
 20 
0.06
 11 
0.982
 21 
0.067
 0 
LINE
 8 
0
 62 
 7 
 10 
0.982
 20 
0.067
 11 
0.988
 21 
0.067
 0 
LINE
 8 
0
 62 
 7 
 10 
0.988
 20 
0.067
 11 
0.988
 21 
0.06
 0 
LINE
 8 
0
 62 
 7 
 10 
1.042
 20 
0.08
 11 
1.035
 21 
0.087
 0 
LINE
 8 
0
 62 
 7 
 10 
1.035
 20 
0.087
 11 
1.022
 21 
0.087
 0 
LINE
 8 
0
 62 
 7 
 10 
1.022
 20 
0.087
 11 
1.015
 21 
0.08
 0 
LINE
 8 
0
 62 
 7 
 10 
1.015
 20 
0.08
 11 
1.015
 21 
0.067
 0 
LINE
 8 
0
 62 
 7 
 10 
1.015
 20 
0.067
 11 
1.022
 21 
0.06
 0 
LINE
 8 
0
 62 
 7 
 10 
1.022
 20 
0.06
 11 
1.035
 21 
0.06
 0 
LINE
 8 
0
 62 
 7 
 10 
1.035
 20 
0.06
 11 
1.042
 21 
0.067
 0 
LINE
 8 
0
 62 
 7 
 10 
1.082
 20 
0.08
 11 
1.075
 21 
0.087
 0 
LINE
 8 
0
 62 
 7 
 10 
1.075
 20 
0.087
 11 
1.062
 21 
0.087
 0 
LINE
 8 
0
 62 
 7 
 10 
1.062
 20 
0.087
 11 
1.055
 21 
0.08
 0 
LINE
 8 
0
 62 
 7 
 10 
1.055
 20 
0.08
 11 
1.055
 21 
0.067
 0 
LINE
 8 
0
 62 
 7 
 10 
1.055
 20 
0.067
 11 
1.062
 21 
0.06
 0 
LINE
 8 
0
 62 
 7 
 10 
1.062
 20 
0.06
 11 
1.075
 21 
0.06
 0 
LINE
 8 
0
 62 
 7 
 10 
1.075
 20 
0.06
 11 
1.082
 21 
0.067
 0 
LINE
 8 
0
 62 
 7 
 10 
1.082
 20 
0.067
 11 
1.082
 21 
0.08
 0 
LINE
 8 
0
 62 
 7 
 10 
1.095
 20 
0.087
 11 
1.095
 21 
0.06
 0 
LINE
 8 
0
 62 
 7 
 10 
1.095
 20 
0.08
 11 
1.102
 21 
0.087
 0 
LINE
 8 
0
 62 
 7 
 10 
1.102
 20 
0.087
 11 
1.108
 21 
0.08
 0 
LINE
 8 
0
 62 
 7 
 10 
1.108
 20 
0.08
 11 
1.108
 21 
0.06
 0 
LINE
 8 
0
 62 
 7 
 10 
1.108
 20 
0.08
 11 
1.115
 21 
0.087
 0 
LINE
 8 
0
 62 
 7 
 10 
1.115
 20 
0.087
 11 
1.122
 21 
0.08
 0 
LINE
 8 
0
 62 
 7 
 10 
1.122
 20 
0.08
 11 
1.122
 21 
0.06
 0 
LINE
 8 
0
 62 
 7 
 10 
1.135
 20 
0.067
 11 
1.162
 21 
0.093
 0 
LINE
 8 
0
 62 
 7 
 10 
1.175
 20 
0.087
 11 
1.175
 21 
0.067
 0 
LINE
 8 
0
 62 
 7 
 10 
1.175
 20 
0.067
 11 
1.182
 21 
0.06
 0 
LINE
 8 
0
 62 
 7 
 10 
1.182
 20 
0.06
 11 
1.188
 21 
0.067
 0 
LINE
 8 
0
 62 
 7 
 10 
1.188
 20 
0.067
 11 
1.188
 21 
0.073
 0 
LINE
 8 
0
 62 
 7 
 10 
1.188
 20 
0.067
 11 
1.195
 21 
0.06
 0 
LINE
 8 
0
 62 
 7 
 10 
1.195
 20 
0.06
 11 
1.202
 21 
0.067
 0 
LINE
 8 
0
 62 
 7 
 10 
1.202
 20 
0.067
 11 
1.202
 21 
0.087
 0 
LINE
 8 
0
 62 
 7 
 10 
1.228
 20 
0.1
 11 
1.228
 21 
0.093
 0 
LINE
 8 
0
 62 
 7 
 10 
1.222
 20 
0.06
 11 
1.235
 21 
0.06
 0 
LINE
 8 
0
 62 
 7 
 10 
1.222
 20 
0.08
 11 
1.228
 21 
0.08
 0 
LINE
 8 
0
 62 
 7 
 10 
1.228
 20 
0.08
 11 
1.228
 21 
0.06
 0 
LINE
 8 
0
 62 
 7 
 10 
1.255
 20 
0.1
 11 
1.262
 21 
0.1
 0 
LINE
 8 
0
 62 
 7 
 10 
1.262
 20 
0.1
 11 
1.262
 21 
0.06
 0 
LINE
 8 
0
 62 
 7 
 10 
1.282
 20 
0.087
 11 
1.268
 21 
0.073
 0 
LINE
 8 
0
 62 
 7 
 10 
1.268
 20 
0.073
 11 
1.282
 21 
0.06
 0 
LINE
 8 
0
 62 
 7 
 10 
1.262
 20 
0.073
 11 
1.268
 21 
0.073
 0 
LINE
 8 
0
 62 
 7 
 10 
1.308
 20 
0.1
 11 
1.308
 21 
0.093
 0 
LINE
 8 
0
 62 
 7 
 10 
1.302
 20 
0.06
 11 
1.315
 21 
0.06
 0 
LINE
 8 
0
 62 
 7 
 10 
1.302
 20 
0.08
 11 
1.308
 21 
0.08
 0 
LINE
 8 
0
 62 
 7 
 10 
1.308
 20 
0.08
 11 
1.308
 21 
0.06
 0 
LINE
 8 
0
 62 
 7 
 10 
0.2
 20 
0.525
 11 
0.225
 21 
0.525
 0 
LINE
 8 
0
 62 
 7 
 10 
0.213
 20 
0.525
 11 
0.213
 21 
0.487
 0 
LINE
 8 
0
 62 
 7 
 10 
0.238
 20 
0.525
 11 
0.238
 21 
0.519
 0 
LINE
 8 
0
 62 
 7 
 10 
0.238
 20 
0.519
 11 
0.263
 21 
0.493
 0 
LINE
 8 
0
 62 
 7 
 10 
0.263
 20 
0.493
 11 
0.263
 21 
0.487
 0 
LINE
 8 
0
 62 
 7 
 10 
0.263
 20 
0.525
 11 
0.263
 21 
0.519
 0 
LINE
 8 
0
 62 
 7 
 10 
0.263
 20 
0.519
 11 
0.238
 21 
0.493
 0 
LINE
 8 
0
 62 
 7 
 10 
0.238
 20 
0.493
 11 
0.238
 21 
0.487
 0 
LINE
 8 
0
 62 
 7 
 10 
0.301
 20 
0.519
 11 
0.295
 21 
0.525
 0 
LINE
 8 
0
 62 
 7 
 10 
0.295
 20 
0.525
 11 
0.282
 21 
0.525
 0 
LINE
 8 
0
 62 
 7 
 10 
0.282
 20 
0.525
 11 
0.276
 21 
0.519
 0 
LINE
 8 
0
 62 
 7 
 10 
0.276
 20 
0.519
 11 
0.276
 21 
0.493
 0 
LINE
 8 
0
 62 
 7 
 10 
0.276
 20 
0.493
 11 
0.282
 21 
0.487
 0 
LINE
 8 
0
 62 
 7 
 10 
0.282
 20 
0.487
 11 
0.295
 21 
0.487
 0 
LINE
 8 
0
 62 
 7 
 10 
0.295
 20 
0.487
 11 
0.301
 21 
0.493
 0 
LINE
 8 
0
 62 
 7 
 10 
0.301
 20 
0.493
 11 
0.301
 21 
0.519
 0 
LINE
 8 
0
 62 
 7 
 10 
0.2
 20 
0.387
 11 
0.2
 21 
0.425
 0 
LINE
 8 
0
 62 
 7 
 10 
0.2
 20 
0.425
 11 
0.219
 21 
0.425
 0 
LINE
 8 
0
 62 
 7 
 10 
0.219
 20 
0.425
 11 
0.225
 21 
0.419
 0 
LINE
 8 
0
 62 
 7 
 10 
0.225
 20 
0.419
 11 
0.225
 21 
0.412
 0 
LINE
 8 
0
 62 
 7 
 10 
0.225
 20 
0.412
 11 
0.219
 21 
0.406
 0 
LINE
 8 
0
 62 
 7 
 10 
0.219
 20 
0.406
 11 
0.2
 21 
0.406
 0 
LINE
 8 
0
 62 
 7 
 10 
0.206
 20 
0.406
 11 
0.225
 21 
0.387
 0 
LINE
 8 
0
 62 
 7 
 10 
0.238
 20 
0.425
 11 
0.238
 21 
0.419
 0 
LINE
 8 
0
 62 
 7 
 10 
0.238
 20 
0.419
 11 
0.263
 21 
0.393
 0 
LINE
 8 
0
 62 
 7 
 10 
0.263
 20 
0.393
 11 
0.263
 21 
0.387
 0 
LINE
 8 
0
 62 
 7 
 10 
0.263
 20 
0.425
 11 
0.263
 21 
0.419
 0 
LINE
 8 
0
 62 
 7 
 10 
0.263
 20 
0.419
 11 
0.238
 21 
0.393
 0 
LINE
 8 
0
 62 
 7 
 10 
0.238
 20 
0.393
 11 
0.238
 21 
0.387
 0 
LINE
 8 
0
 62 
 7 
 10 
0.282
 20 
0.425
 11 
0.295
 21 
0.425
 0 
LINE
 8 
0
 62 
 7 
 10 
0.282
 20 
0.387
 11 
0.295
 21 
0.387
 0 
LINE
 8 
0
 62 
 7 
 10 
0.289
 20 
0.425
 11 
0.289
 21 
0.387
 0 
LINE
 8 
0
 62 
 7 
 10 
0.434
 20 
0.278
 11 
0.467
 21 
0.278
 0 
LINE
 8 
0
 62 
 7 
 10 
0.467
 20 
0.278
 11 
0.467
 21 
0.223
 0 
LINE
 8 
0
 62 
 7 
 10 
0.467
 20 
0.223
 11 
0.434
 21 
0.223
 0 
LINE
 8 
0
 62 
 7 
 10 
0.434
 20 
0.223
 11 
0.434
 21 
0.278
 0 
LINE
 8 
0
 62 
 7 
 10 
0.425
 20 
0.619
 11 
0.419
 21 
0.625
 0 
LINE
 8 
0
 62 
 7 
 10 
0.419
 20 
0.625
 11 
0.406
 21 
0.625
 0 
LINE
 8 
0
 62 
 7 
 10 
0.406
 20 
0.625
 11 
0.4
 21 
0.619
 0 
LINE
 8 
0
 62 
 7 
 10 
0.4
 20 
0.619
 11 
0.4
 21 
0.612
 0 
LINE
 8 
0
 62 
 7 
 10 
0.4
 20 
0.612
 11 
0.406
 21 
0.606
 0 
LINE
 8 
0
 62 
 7 
 10 
0.406
 20 
0.606
 11 
0.419
 21 
0.606
 0 
LINE
 8 
0
 62 
 7 
 10 
0.419
 20 
0.606
 11 
0.425
 21 
0.6
 0 
LINE
 8 
0
 62 
 7 
 10 
0.425
 20 
0.6
 11 
0.425
 21 
0.593
 0 
LINE
 8 
0
 62 
 7 
 10 
0.425
 20 
0.593
 11 
0.419
 21 
0.587
 0 
LINE
 8 
0
 62 
 7 
 10 
0.419
 20 
0.587
 11 
0.406
 21 
0.587
 0 
LINE
 8 
0
 62 
 7 
 10 
0.406
 20 
0.587
 11 
0.4
 21 
0.593
 0 
LINE
 8 
0
 62 
 7 
 10 
0.438
 20 
0.625
 11 
0.438
 21 
0.587
 0 
LINE
 8 
0
 62 
 7 
 10 
0.438
 20 
0.587
 11 
0.451
 21 
0.6
 0 
LINE
 8 
0
 62 
 7 
 10 
0.451
 20 
0.6
 11 
0.463
 21 
0.587
 0 
LINE
 8 
0
 62 
 7 
 10 
0.463
 20 
0.587
 11 
0.463
 21 
0.625
 0 
LINE
 8 
0
 62 
 7 
 10 
0.451
 20 
0.6
 11 
0.451
 21 
0.606
 0 
LINE
 8 
0
 62 
 7 
 10 
0.482
 20 
0.619
 11 
0.489
 21 
0.625
 0 
LINE
 8 
0
 62 
 7 
 10 
0.489
 20 
0.625
 11 
0.489
 21 
0.587
 0 
LINE
 8 
0
 62 
 7 
 10 
0.482
 20 
0.587
 11 
0.495
 21 
0.587
 0 
LINE
 8 
0
 62 
 7 
 10 
0.475
 20 
0.269
 11 
0.525
 21 
0.269
 0 
LINE
 8 
0
 62 
 7 
 10 
0.375
 20 
0.269
 11 
0.375
 21 
0.536
 0 
LINE
 8 
0
 62 
 7 
 10 
0.525
 20 
0.269
 11 
0.525
 21 
0.536
 0 
LINE
 8 
0
 62 
 7 
 10 
0.375
 20 
0.536
 11 
0.425
 21 
0.536
 0 
LINE
 8 
0
 62 
 7 
 10 
0.425
 20 
0.336
 11 
0.475
 21 
0.336
 0 
LINE
 8 
0
 62 
 7 
 10 
0.475
 20 
0.336
 11 
0.475
 21 
0.461
 0 
LINE
 8 
0
 62 
 7 
 10 
0.475
 20 
0.461
 11 
0.425
 21 
0.461
 0 
LINE
 8 
0
 62 
 7 
 10 
0.425
 20 
0.461
 11 
0.425
 21 
0.336
 0 
LINE
 8 
0
 62 
 7 
 10 
0.375
 20 
0.269
 11 
0.425
 21 
0.269
 0 
LINE
 8 
0
 62 
 7 
 10 
0.475
 20 
0.536
 11 
0.525
 21 
0.536
 0 
LINE
 8 
0
 62 
 7 
 10 
0.434
 20 
0.582
 11 
0.467
 21 
0.582
 0 
LINE
 8 
0
 62 
 7 
 10 
0.467
 20 
0.582
 11 
0.467
 21 
0.527
 0 
LINE
 8 
0
 62 
 7 
 10 
0.467
 20 
0.527
 11 
0.434
 21 
0.527
 0 
LINE
 8 
0
 62 
 7 
 10 
0.434
 20 
0.527
 11 
0.434
 21 
0.582
 0 
LINE
 8 
0
 62 
 7 
 10 
0.2
 20 
0.625
 11 
0.219
 21 
0.625
 0 
LINE
 8 
0
 62 
 7 
 10 
0.219
 20 
0.625
 11 
0.225
 21 
0.619
 0 
LINE
 8 
0
 62 
 7 
 10 
0.225
 20 
0.619
 11 
0.225
 21 
0.593
 0 
LINE
 8 
0
 62 
 7 
 10 
0.225
 20 
0.593
 11 
0.219
 21 
0.587
 0 
LINE
 8 
0
 62 
 7 
 10 
0.219
 20 
0.587
 11 
0.2
 21 
0.587
 0 
LINE
 8 
0
 62 
 7 
 10 
0.206
 20 
0.625
 11 
0.206
 21 
0.587
 0 
LINE
 8 
0
 62 
 7 
 10 
0.238
 20 
0.625
 11 
0.263
 21 
0.625
 0 
LINE
 8 
0
 62 
 7 
 10 
0.251
 20 
0.625
 11 
0.251
 21 
0.587
 0 
LINE
 8 
0
 62 
 7 
 10 
0.276
 20 
0.587
 11 
0.276
 21 
0.625
 0 
LINE
 8 
0
 62 
 7 
 10 
0.276
 20 
0.625
 11 
0.295
 21 
0.625
 0 
LINE
 8 
0
 62 
 7 
 10 
0.295
 20 
0.625
 11 
0.301
 21 
0.619
 0 
LINE
 8 
0
 62 
 7 
 10 
0.301
 20 
0.619
 11 
0.301
 21 
0.612
 0 
LINE
 8 
0
 62 
 7 
 10 
0.301
 20 
0.612
 11 
0.295
 21 
0.606
 0 
LINE
 8 
0
 62 
 7 
 10 
0.295
 20 
0.606
 11 
0.276
 21 
0.606
 0 
LINE
 8 
0
 62 
 7 
 10 
0.282
 20 
0.606
 11 
0.301
 21 
0.587
 0 
LINE
 8 
0
 62 
 7 
 10 
0.225
 20 
0.219
 11 
0.219
 21 
0.225
 0 
LINE
 8 
0
 62 
 7 
 10 
0.219
 20 
0.225
 11 
0.206
 21 
0.225
 0 
LINE
 8 
0
 62 
 7 
 10 
0.206
 20 
0.225
 11 
0.2
 21 
0.219
 0 
LINE
 8 
0
 62 
 7 
 10 
0.2
 20 
0.219
 11 
0.2
 21 
0.193
 0 
LINE
 8 
0
 62 
 7 
 10 
0.2
 20 
0.193
 11 
0.206
 21 
0.187
 0 
LINE
 8 
0
 62 
 7 
 10 
0.206
 20 
0.187
 11 
0.219
 21 
0.187
 0 
LINE
 8 
0
 62 
 7 
 10 
0.219
 20 
0.187
 11 
0.225
 21 
0.193
 0 
LINE
 8 
0
 62 
 7 
 10 
0.238
 20 
0.225
 11 
0.263
 21 
0.225
 0 
LINE
 8 
0
 62 
 7 
 10 
0.251
 20 
0.225
 11 
0.251
 21 
0.187
 0 
LINE
 8 
0
 62 
 7 
 10 
0.301
 20 
0.219
 11 
0.295
 21 
0.225
 0 
LINE
 8 
0
 62 
 7 
 10 
0.295
 20 
0.225
 11 
0.282
 21 
0.225
 0 
LINE
 8 
0
 62 
 7 
 10 
0.282
 20 
0.225
 11 
0.276
 21 
0.219
 0 
LINE
 8 
0
 62 
 7 
 10 
0.276
 20 
0.219
 11 
0.276
 21 
0.212
 0 
LINE
 8 
0
 62 
 7 
 10 
0.276
 20 
0.212
 11 
0.282
 21 
0.206
 0 
LINE
 8 
0
 62 
 7 
 10 
0.282
 20 
0.206
 11 
0.295
 21 
0.206
 0 
LINE
 8 
0
 62 
 7 
 10 
0.295
 20 
0.206
 11 
0.301
 21 
0.2
 0 
LINE
 8 
0
 62 
 7 
 10 
0.301
 20 
0.2
 11 
0.301
 21 
0.193
 0 
LINE
 8 
0
 62 
 7 
 10 
0.301
 20 
0.193
 11 
0.295
 21 
0.187
 0 
LINE
 8 
0
 62 
 7 
 10 
0.295
 20 
0.187
 11 
0.282
 21 
0.187
 0 
LINE
 8 
0
 62 
 7 
 10 
0.282
 20 
0.187
 11 
0.276
 21 
0.193
 0 
ENDSEC
 0 
EOF
